<svg width="390" height="66" viewBox="0 0 390 66" fill="none" xmlns="http://www.w3.org/2000/svg">
<rect y="36" width="390" height="30" fill="white"/>
<path d="M4.606 33H0.376L9.4 0.569997H12.972L22.043 33H17.813L15.98 25.574H6.439L4.606 33ZM11.186 7.432L7.614 21.908H14.758L11.186 7.432ZM34.2516 33V9.5H38.0586V11.803C38.7636 10.393 40.3146 9.124 42.6646 9.124C46.4716 9.124 49.3386 11.756 49.3386 18.336V33H45.5786V18.383C45.5786 13.636 43.9806 12.602 41.9596 12.602C39.1866 12.602 38.0116 14.811 38.0116 18.336V33H34.2516ZM65.3564 27.548L68.1294 29.475C66.8604 32.248 64.7454 33.376 61.4084 33.376C56.0034 33.376 53.2774 29.287 53.2774 22.754V19.652C53.2774 12.978 55.9564 9.124 60.7974 9.124C65.9204 9.124 68.3644 12.367 68.3644 19.652V22.096H57.0374V22.754C57.0374 26.796 58.1654 29.992 61.3614 29.992C63.6174 29.992 64.4164 29.099 65.3564 27.548ZM60.7974 12.508C57.9304 12.508 57.0374 14.623 57.0374 18.806H64.6044C64.6044 13.918 63.4764 12.508 60.7974 12.508ZM83.9038 15.751L79.2978 33H76.1488L70.5088 9.5H74.5508L77.8878 25.997L82.1178 9.5H85.6898L89.9668 26.138L93.2568 9.5H97.2518L91.7058 33H88.5098L83.9038 15.751ZM120.618 27.548L123.391 29.475C122.122 32.248 120.007 33.376 116.67 33.376C111.265 33.376 108.539 29.287 108.539 22.754V19.652C108.539 12.978 111.218 9.124 116.059 9.124C121.182 9.124 123.626 12.367 123.626 19.652V22.096H112.299V22.754C112.299 26.796 113.427 29.992 116.623 29.992C118.879 29.992 119.678 29.099 120.618 27.548ZM116.059 12.508C113.192 12.508 112.299 14.623 112.299 18.806H119.866C119.866 13.918 118.738 12.508 116.059 12.508ZM141.088 12.32L138.174 14.529C137.375 13.166 136.529 12.602 135.26 12.602C133.145 12.602 131.782 14.388 131.782 18.289V33H128.022V9.5H131.782V11.803C132.487 10.299 133.897 9.124 136.059 9.124C138.268 9.124 139.913 10.205 141.088 12.32ZM141.861 26.138C141.861 21.062 144.916 19.417 149.193 19.417H152.906V16.691C152.906 13.448 151.966 12.602 149.287 12.602C147.031 12.602 146.138 12.931 145.198 14.858L142.331 13.025C143.647 10.299 145.621 9.124 149.334 9.124C154.175 9.124 156.666 11.051 156.666 16.691V33H152.906V30.697C152.201 32.295 151.167 33.376 148.535 33.376C144.211 33.376 141.861 30.697 141.861 26.138ZM152.906 23.976V22.613H149.428C146.655 22.613 145.621 23.882 145.621 26.232C145.621 28.864 146.984 29.898 149.146 29.898C151.167 29.898 152.906 29.24 152.906 23.976ZM185.882 19.652V22.754C185.882 29.475 183.015 33.376 177.939 33.376C172.863 33.376 170.043 29.475 170.043 22.754V19.652C170.043 12.931 172.863 9.124 177.939 9.124C183.015 9.124 185.882 12.931 185.882 19.652ZM177.939 29.992C181.182 29.992 182.122 26.796 182.122 22.754V19.652C182.122 15.234 181.182 12.508 177.939 12.508C174.696 12.508 173.803 15.234 173.803 19.652V22.754C173.803 26.796 174.696 29.992 177.939 29.992ZM188.202 9.5H190.599V7.808C190.599 2.92 191.915 0.569997 196.521 0.569997H197.649V4.142H196.756C194.688 4.142 194.359 5.317 194.359 8.466V9.5H197.649V12.884H194.359V33H190.599V12.884H188.202V9.5ZM221.689 11.85V0.569997H225.449V33H221.689V30.932C220.749 32.483 219.433 33.376 216.895 33.376C211.913 33.376 209.516 28.864 209.516 22.754V19.652C209.516 12.931 212.477 9.124 216.895 9.124C219.386 9.124 220.843 10.252 221.689 11.85ZM217.506 29.992C220.608 29.992 221.689 26.796 221.689 22.754V19.323C221.689 15.093 220.091 12.508 217.506 12.508C214.686 12.508 213.276 15.187 213.276 19.652V22.754C213.276 26.749 214.545 29.992 217.506 29.992ZM245.229 19.652V22.754C245.229 29.475 242.362 33.376 237.286 33.376C232.21 33.376 229.39 29.475 229.39 22.754V19.652C229.39 12.931 232.21 9.124 237.286 9.124C242.362 9.124 245.229 12.931 245.229 19.652ZM237.286 29.992C240.529 29.992 241.469 26.796 241.469 22.754V19.652C241.469 15.234 240.529 12.508 237.286 12.508C234.043 12.508 233.15 15.234 233.15 19.652V22.754C233.15 26.796 234.043 29.992 237.286 29.992ZM260.427 11.85V9.5H264.187V32.53C264.187 39.063 261.461 42.212 256.103 42.212C252.531 42.212 250.416 41.037 249.1 38.311L251.967 36.337C252.813 37.982 253.753 38.828 256.009 38.828C259.252 38.828 260.427 36.572 260.427 32.53V30.932C259.487 32.483 258.171 33.376 255.633 33.376C250.651 33.376 248.254 28.864 248.254 22.754V19.652C248.254 12.931 251.215 9.124 255.633 9.124C258.124 9.124 259.581 10.252 260.427 11.85ZM256.244 29.992C259.346 29.992 260.427 26.796 260.427 22.754V19.323C260.427 15.093 258.829 12.508 256.244 12.508C253.424 12.508 252.014 15.187 252.014 19.652V22.754C252.014 26.749 253.283 29.992 256.244 29.992ZM291.543 13.025L288.817 14.999C287.877 13.354 287.031 12.602 284.728 12.602C282.707 12.602 281.532 13.683 281.532 15.751C281.532 17.96 282.754 18.9 285.292 19.464C288.676 20.216 292.107 21.626 292.107 26.467C292.107 30.556 289.71 33.376 284.916 33.376C281.062 33.376 278.994 32.013 277.537 29.569L280.216 27.407C281.156 29.099 282.378 29.898 284.681 29.898C287.125 29.898 288.347 28.676 288.347 26.561C288.347 24.493 287.501 23.553 284.164 22.801C281.015 22.096 277.772 20.357 277.772 15.798C277.772 11.897 280.31 9.124 284.587 9.124C287.689 9.124 290.039 10.111 291.543 13.025ZM296.24 33V0.569997H300.047V11.803C300.752 10.393 302.303 9.124 304.653 9.124C308.46 9.124 311.327 11.756 311.327 18.336V33H307.567V18.383C307.567 13.636 305.969 12.602 303.948 12.602C301.175 12.602 300 14.811 300 18.336V33H296.24ZM327.345 27.548L330.118 29.475C328.849 32.248 326.734 33.376 323.397 33.376C317.992 33.376 315.266 29.287 315.266 22.754V19.652C315.266 12.978 317.945 9.124 322.786 9.124C327.909 9.124 330.353 12.367 330.353 19.652V22.096H319.026V22.754C319.026 26.796 320.154 29.992 323.35 29.992C325.606 29.992 326.405 29.099 327.345 27.548ZM322.786 12.508C319.919 12.508 319.026 14.623 319.026 18.806H326.593C326.593 13.918 325.465 12.508 322.786 12.508ZM334.749 25.762V0.569997H338.509V24.822C338.509 27.36 338.415 29.522 341.423 29.522V33C336.347 33 334.749 30.65 334.749 25.762ZM343.798 12.884V9.5H346.195V4.33H349.955V9.5H353.856V12.884H349.955V24.822C349.955 28.065 350.096 29.428 352.493 29.428H353.856V33H352.211C347.558 33 346.195 30.65 346.195 25.762V12.884H343.798ZM368.745 27.548L371.518 29.475C370.249 32.248 368.134 33.376 364.797 33.376C359.392 33.376 356.666 29.287 356.666 22.754V19.652C356.666 12.978 359.345 9.124 364.186 9.124C369.309 9.124 371.753 12.367 371.753 19.652V22.096H360.426V22.754C360.426 26.796 361.554 29.992 364.75 29.992C367.006 29.992 367.805 29.099 368.745 27.548ZM364.186 12.508C361.319 12.508 360.426 14.623 360.426 18.806H367.993C367.993 13.918 366.865 12.508 364.186 12.508ZM389.215 12.32L386.301 14.529C385.502 13.166 384.656 12.602 383.387 12.602C381.272 12.602 379.909 14.388 379.909 18.289V33H376.149V9.5H379.909V11.803C380.614 10.299 382.024 9.124 384.186 9.124C386.395 9.124 388.04 10.205 389.215 12.32Z" fill="white"/>
<mask id="mask0_427_4" style="mask-type:alpha" maskUnits="userSpaceOnUse" x="0" y="36" width="390" height="30">
<rect y="36" width="390" height="30" fill="white"/>
</mask>
<g mask="url(#mask0_427_4)">
<path d="M5.606 33H1.376L10.4 0.569997H13.972L23.043 33H18.813L16.98 25.574H7.439L5.606 33ZM12.186 7.432L8.614 21.908H15.758L12.186 7.432ZM35.2516 33V9.5H39.0586V11.803C39.7636 10.393 41.3146 9.124 43.6646 9.124C47.4716 9.124 50.3386 11.756 50.3386 18.336V33H46.5786V18.383C46.5786 13.636 44.9806 12.602 42.9596 12.602C40.1866 12.602 39.0116 14.811 39.0116 18.336V33H35.2516ZM66.3564 27.548L69.1294 29.475C67.8604 32.248 65.7454 33.376 62.4084 33.376C57.0034 33.376 54.2774 29.287 54.2774 22.754V19.652C54.2774 12.978 56.9564 9.124 61.7974 9.124C66.9204 9.124 69.3644 12.367 69.3644 19.652V22.096H58.0374V22.754C58.0374 26.796 59.1654 29.992 62.3614 29.992C64.6174 29.992 65.4164 29.099 66.3564 27.548ZM61.7974 12.508C58.9304 12.508 58.0374 14.623 58.0374 18.806H65.6044C65.6044 13.918 64.4764 12.508 61.7974 12.508ZM84.9038 15.751L80.2978 33H77.1488L71.5088 9.5H75.5508L78.8878 25.997L83.1178 9.5H86.6898L90.9668 26.138L94.2568 9.5H98.2518L92.7058 33H89.5098L84.9038 15.751ZM121.618 27.548L124.391 29.475C123.122 32.248 121.007 33.376 117.67 33.376C112.265 33.376 109.539 29.287 109.539 22.754V19.652C109.539 12.978 112.218 9.124 117.059 9.124C122.182 9.124 124.626 12.367 124.626 19.652V22.096H113.299V22.754C113.299 26.796 114.427 29.992 117.623 29.992C119.879 29.992 120.678 29.099 121.618 27.548ZM117.059 12.508C114.192 12.508 113.299 14.623 113.299 18.806H120.866C120.866 13.918 119.738 12.508 117.059 12.508ZM142.088 12.32L139.174 14.529C138.375 13.166 137.529 12.602 136.26 12.602C134.145 12.602 132.782 14.388 132.782 18.289V33H129.022V9.5H132.782V11.803C133.487 10.299 134.897 9.124 137.059 9.124C139.268 9.124 140.913 10.205 142.088 12.32ZM142.861 26.138C142.861 21.062 145.916 19.417 150.193 19.417H153.906V16.691C153.906 13.448 152.966 12.602 150.287 12.602C148.031 12.602 147.138 12.931 146.198 14.858L143.331 13.025C144.647 10.299 146.621 9.124 150.334 9.124C155.175 9.124 157.666 11.051 157.666 16.691V33H153.906V30.697C153.201 32.295 152.167 33.376 149.535 33.376C145.211 33.376 142.861 30.697 142.861 26.138ZM153.906 23.976V22.613H150.428C147.655 22.613 146.621 23.882 146.621 26.232C146.621 28.864 147.984 29.898 150.146 29.898C152.167 29.898 153.906 29.24 153.906 23.976ZM186.882 19.652V22.754C186.882 29.475 184.015 33.376 178.939 33.376C173.863 33.376 171.043 29.475 171.043 22.754V19.652C171.043 12.931 173.863 9.124 178.939 9.124C184.015 9.124 186.882 12.931 186.882 19.652ZM178.939 29.992C182.182 29.992 183.122 26.796 183.122 22.754V19.652C183.122 15.234 182.182 12.508 178.939 12.508C175.696 12.508 174.803 15.234 174.803 19.652V22.754C174.803 26.796 175.696 29.992 178.939 29.992ZM189.202 9.5H191.599V7.808C191.599 2.92 192.915 0.569997 197.521 0.569997H198.649V4.142H197.756C195.688 4.142 195.359 5.317 195.359 8.466V9.5H198.649V12.884H195.359V33H191.599V12.884H189.202V9.5ZM222.689 11.85V0.569997H226.449V33H222.689V30.932C221.749 32.483 220.433 33.376 217.895 33.376C212.913 33.376 210.516 28.864 210.516 22.754V19.652C210.516 12.931 213.477 9.124 217.895 9.124C220.386 9.124 221.843 10.252 222.689 11.85ZM218.506 29.992C221.608 29.992 222.689 26.796 222.689 22.754V19.323C222.689 15.093 221.091 12.508 218.506 12.508C215.686 12.508 214.276 15.187 214.276 19.652V22.754C214.276 26.749 215.545 29.992 218.506 29.992ZM246.229 19.652V22.754C246.229 29.475 243.362 33.376 238.286 33.376C233.21 33.376 230.39 29.475 230.39 22.754V19.652C230.39 12.931 233.21 9.124 238.286 9.124C243.362 9.124 246.229 12.931 246.229 19.652ZM238.286 29.992C241.529 29.992 242.469 26.796 242.469 22.754V19.652C242.469 15.234 241.529 12.508 238.286 12.508C235.043 12.508 234.15 15.234 234.15 19.652V22.754C234.15 26.796 235.043 29.992 238.286 29.992ZM261.427 11.85V9.5H265.187V32.53C265.187 39.063 262.461 42.212 257.103 42.212C253.531 42.212 251.416 41.037 250.1 38.311L252.967 36.337C253.813 37.982 254.753 38.828 257.009 38.828C260.252 38.828 261.427 36.572 261.427 32.53V30.932C260.487 32.483 259.171 33.376 256.633 33.376C251.651 33.376 249.254 28.864 249.254 22.754V19.652C249.254 12.931 252.215 9.124 256.633 9.124C259.124 9.124 260.581 10.252 261.427 11.85ZM257.244 29.992C260.346 29.992 261.427 26.796 261.427 22.754V19.323C261.427 15.093 259.829 12.508 257.244 12.508C254.424 12.508 253.014 15.187 253.014 19.652V22.754C253.014 26.749 254.283 29.992 257.244 29.992ZM292.543 13.025L289.817 14.999C288.877 13.354 288.031 12.602 285.728 12.602C283.707 12.602 282.532 13.683 282.532 15.751C282.532 17.96 283.754 18.9 286.292 19.464C289.676 20.216 293.107 21.626 293.107 26.467C293.107 30.556 290.71 33.376 285.916 33.376C282.062 33.376 279.994 32.013 278.537 29.569L281.216 27.407C282.156 29.099 283.378 29.898 285.681 29.898C288.125 29.898 289.347 28.676 289.347 26.561C289.347 24.493 288.501 23.553 285.164 22.801C282.015 22.096 278.772 20.357 278.772 15.798C278.772 11.897 281.31 9.124 285.587 9.124C288.689 9.124 291.039 10.111 292.543 13.025ZM297.24 33V0.569997H301.047V11.803C301.752 10.393 303.303 9.124 305.653 9.124C309.46 9.124 312.327 11.756 312.327 18.336V33H308.567V18.383C308.567 13.636 306.969 12.602 304.948 12.602C302.175 12.602 301 14.811 301 18.336V33H297.24ZM328.345 27.548L331.118 29.475C329.849 32.248 327.734 33.376 324.397 33.376C318.992 33.376 316.266 29.287 316.266 22.754V19.652C316.266 12.978 318.945 9.124 323.786 9.124C328.909 9.124 331.353 12.367 331.353 19.652V22.096H320.026V22.754C320.026 26.796 321.154 29.992 324.35 29.992C326.606 29.992 327.405 29.099 328.345 27.548ZM323.786 12.508C320.919 12.508 320.026 14.623 320.026 18.806H327.593C327.593 13.918 326.465 12.508 323.786 12.508ZM335.749 25.762V0.569997H339.509V24.822C339.509 27.36 339.415 29.522 342.423 29.522V33C337.347 33 335.749 30.65 335.749 25.762ZM344.798 12.884V9.5H347.195V4.33H350.955V9.5H354.856V12.884H350.955V24.822C350.955 28.065 351.096 29.428 353.493 29.428H354.856V33H353.211C348.558 33 347.195 30.65 347.195 25.762V12.884H344.798ZM369.745 27.548L372.518 29.475C371.249 32.248 369.134 33.376 365.797 33.376C360.392 33.376 357.666 29.287 357.666 22.754V19.652C357.666 12.978 360.345 9.124 365.186 9.124C370.309 9.124 372.753 12.367 372.753 19.652V22.096H361.426V22.754C361.426 26.796 362.554 29.992 365.75 29.992C368.006 29.992 368.805 29.099 369.745 27.548ZM365.186 12.508C362.319 12.508 361.426 14.623 361.426 18.806H368.993C368.993 13.918 367.865 12.508 365.186 12.508ZM390.215 12.32L387.301 14.529C386.502 13.166 385.656 12.602 384.387 12.602C382.272 12.602 380.909 14.388 380.909 18.289V33H377.149V9.5H380.909V11.803C381.614 10.299 383.024 9.124 385.186 9.124C387.395 9.124 389.04 10.205 390.215 12.32Z" fill="#F58BAB"/>
</g>
<path d="M58.08 57.26V52.528H55.7V51.31H58.08V50.428H55.7V49.252H62.21V50.428H59.55V51.31H62.07V52.528H59.55V57.26H58.08ZM56.232 56.336L55.406 55.244C56.0127 54.7307 56.5213 54.2127 56.932 53.69C57.3427 53.158 57.6787 52.6027 57.94 52.024L58.85 52.556C58.5513 53.2653 58.1827 53.942 57.744 54.586C57.3053 55.2207 56.8013 55.804 56.232 56.336ZM60.754 55.272C60.4367 54.8987 60.1007 54.5347 59.746 54.18C59.4007 53.8253 59.0273 53.4707 58.626 53.116L59.326 52.276C59.7087 52.6027 60.0867 52.9387 60.46 53.284C60.8333 53.6293 61.202 53.984 61.566 54.348L60.754 55.272ZM57.282 49.672C57.1793 49.2333 57.0627 48.79 56.932 48.342C56.8013 47.894 56.6613 47.4553 56.512 47.026L57.758 46.69C57.9073 47.1193 58.0473 47.5673 58.178 48.034C58.3087 48.4913 58.4253 48.944 58.528 49.392L57.282 49.672ZM61.944 57.12L60.866 56.154C61.1647 55.734 61.426 55.3047 61.65 54.866C61.874 54.4273 62.0653 53.9373 62.224 53.396C62.3827 52.8547 62.5087 52.2293 62.602 51.52C62.6953 50.8107 62.7607 49.9753 62.798 49.014C62.8447 48.0527 62.868 46.9327 62.868 45.654H64.268C64.268 47.0073 64.24 48.202 64.184 49.238C64.128 50.274 64.0393 51.1887 63.918 51.982C63.806 52.766 63.6567 53.466 63.47 54.082C63.2927 54.6887 63.078 55.2393 62.826 55.734C62.574 56.2193 62.28 56.6813 61.944 57.12ZM60.236 50.246L59.032 49.924C59.284 49.4667 59.5127 48.958 59.718 48.398C59.9327 47.838 60.11 47.2593 60.25 46.662L61.538 46.83C61.398 47.4553 61.216 48.062 60.992 48.65C60.768 49.238 60.516 49.77 60.236 50.246ZM65.78 57.134V50.204H63.288V48.874H68.51V50.204H67.208V57.134H65.78ZM55.77 47.068V45.85H58.08V44.45H59.55V45.85H62.252V47.068H55.77ZM62.882 46.984L62.868 45.654C63.8667 45.5793 64.7907 45.4627 65.64 45.304C66.4987 45.136 67.2593 44.9307 67.922 44.688L68.286 46.004C66.83 46.4987 65.0287 46.8253 62.882 46.984ZM75.748 56.7C74.712 56.7 73.858 56.5367 73.186 56.21C72.5233 55.8833 72.0333 55.3793 71.716 54.698C71.3987 54.0167 71.24 53.144 71.24 52.08V45.22H72.752V52.08C72.752 53.2093 72.99 54.0307 73.466 54.544C73.942 55.048 74.7027 55.3 75.748 55.3C76.5133 55.3 77.1853 55.1647 77.764 54.894C78.3427 54.614 78.8653 54.166 79.332 53.55C79.808 52.9247 80.2607 52.0987 80.69 51.072L82.09 51.618C81.7167 52.542 81.32 53.326 80.9 53.97C80.48 54.614 80.018 55.1367 79.514 55.538C79.0193 55.9393 78.4593 56.2333 77.834 56.42C77.218 56.6067 76.5227 56.7 75.748 56.7ZM87.508 56.35C87.0507 56.35 86.6213 56.2007 86.22 55.902C85.828 55.6033 85.4827 55.188 85.184 54.656C84.8853 54.124 84.652 53.5033 84.484 52.794C84.3253 52.0753 84.246 51.3007 84.246 50.47C84.246 49.8073 84.302 49.098 84.414 48.342C84.5353 47.5767 84.7127 46.7833 84.946 45.962L86.402 46.144C86.1873 46.9 86.024 47.6327 85.912 48.342C85.8 49.042 85.744 49.7 85.744 50.316C85.744 50.9227 85.7953 51.4967 85.898 52.038C86.0007 52.57 86.1407 53.0413 86.318 53.452C86.4953 53.8627 86.696 54.1847 86.92 54.418C87.144 54.6513 87.382 54.768 87.634 54.768C87.8673 54.768 88.124 54.67 88.404 54.474C88.684 54.278 88.9687 54.012 89.258 53.676C89.5473 53.3307 89.818 52.9433 90.07 52.514C90.322 52.0753 90.532 51.618 90.7 51.142L92.03 51.814C91.806 52.4393 91.5213 53.0273 91.176 53.578C90.84 54.1287 90.4667 54.614 90.056 55.034C89.6453 55.4447 89.2207 55.7667 88.782 56C88.3433 56.2333 87.9187 56.35 87.508 56.35ZM94.662 55.006C94.662 53.9327 94.5873 52.8733 94.438 51.828C94.298 50.7733 94.088 49.7653 93.808 48.804C93.528 47.8333 93.192 46.9513 92.8 46.158L94.172 45.738C94.6013 46.5687 94.9607 47.4833 95.25 48.482C95.5393 49.4713 95.7587 50.5167 95.908 51.618C96.0667 52.7193 96.146 53.8487 96.146 55.006H94.662ZM107.08 57.148C106.931 57.148 106.702 57.1387 106.394 57.12C106.095 57.1107 105.741 57.0967 105.33 57.078L105.26 55.832C105.624 55.8507 105.946 55.8647 106.226 55.874C106.506 55.8833 106.707 55.888 106.828 55.888C107.071 55.888 107.243 55.8787 107.346 55.86C107.449 55.832 107.509 55.762 107.528 55.65C107.556 55.538 107.57 55.3513 107.57 55.09V52.36H102.53V51.1H107.57V49.812H102.53V48.552H105.708V47.012H103.132V45.78H105.708V44.38H107.22V45.78H109.908V47.012H107.22V48.552H110.412V49.812H109.068V51.1H110.412V52.36H109.068V55.048C109.068 55.5333 109.045 55.916 108.998 56.196C108.961 56.476 108.877 56.6813 108.746 56.812C108.615 56.952 108.415 57.0407 108.144 57.078C107.883 57.1247 107.528 57.148 107.08 57.148ZM97.952 56.84V45.22H102.11V56H99.352V54.74H100.752V51.072H99.352V49.812H100.752V46.508H99.352V56.84H97.952ZM105.106 55.622C104.789 55.2673 104.443 54.9033 104.07 54.53C103.706 54.1567 103.342 53.8113 102.978 53.494L103.944 52.556C104.317 52.8733 104.686 53.2187 105.05 53.592C105.423 53.9653 105.769 54.334 106.086 54.698L105.106 55.622ZM122.83 57.232C122.578 57.232 122.298 57.148 121.99 56.98C121.682 56.812 121.369 56.5367 121.052 56.154C120.744 55.7713 120.445 55.2627 120.156 54.628C119.867 53.9933 119.605 53.214 119.372 52.29C119.148 51.3567 118.966 50.26 118.826 49C118.695 47.7307 118.63 46.2747 118.63 44.632H120.1C120.1 46.1253 120.17 47.46 120.31 48.636C120.459 49.812 120.646 50.834 120.87 51.702C121.094 52.57 121.327 53.2887 121.57 53.858C121.813 54.4273 122.037 54.852 122.242 55.132C122.457 55.412 122.62 55.552 122.732 55.552C122.807 55.552 122.872 55.5053 122.928 55.412C122.993 55.3093 123.063 55.0947 123.138 54.768C123.213 54.432 123.297 53.9093 123.39 53.2L124.608 53.676C124.533 54.376 124.431 54.9593 124.3 55.426C124.179 55.8833 124.039 56.2427 123.88 56.504C123.721 56.7747 123.553 56.9613 123.376 57.064C123.199 57.176 123.017 57.232 122.83 57.232ZM113.03 57.26V48.496H114.5V57.26H113.03ZM112.036 52.374L111.294 50.988C111.798 50.3907 112.241 49.7653 112.624 49.112C113.007 48.4587 113.338 47.7587 113.618 47.012C113.907 46.2653 114.145 45.4627 114.332 44.604L115.76 44.926C115.592 45.7847 115.363 46.592 115.074 47.348C114.794 48.0947 114.463 48.7853 114.08 49.42V49C113.968 49.28 113.833 49.574 113.674 49.882C113.515 50.1807 113.343 50.484 113.156 50.792C112.979 51.0907 112.792 51.3753 112.596 51.646C112.409 51.9167 112.223 52.1593 112.036 52.374ZM115.172 49.602L115.088 48.314L124.3 47.474L124.37 48.762L115.172 49.602ZM123.026 47.362C122.681 47.0073 122.307 46.648 121.906 46.284C121.514 45.92 121.141 45.5933 120.786 45.304L121.752 44.408C122.125 44.7067 122.503 45.038 122.886 45.402C123.269 45.7567 123.637 46.116 123.992 46.48L123.026 47.362ZM133.246 55.09C133.75 55.034 134.212 54.8893 134.632 54.656C135.061 54.4227 135.43 54.1193 135.738 53.746C136.055 53.3727 136.298 52.948 136.466 52.472C136.643 51.9867 136.732 51.4687 136.732 50.918C136.732 50.1247 136.55 49.434 136.186 48.846C135.822 48.258 135.313 47.8053 134.66 47.488C134.016 47.1613 133.265 46.998 132.406 46.998C131.678 46.998 131.001 47.1193 130.376 47.362C129.751 47.6047 129.2 47.9407 128.724 48.37C128.248 48.79 127.875 49.2847 127.604 49.854C127.343 50.4233 127.212 51.0347 127.212 51.688C127.212 52.1733 127.287 52.6353 127.436 53.074C127.595 53.5127 127.795 53.872 128.038 54.152C128.281 54.4227 128.537 54.558 128.808 54.558C129.2 54.558 129.569 54.222 129.914 53.55C130.269 52.878 130.586 51.912 130.866 50.652C131.155 49.3827 131.393 47.8613 131.58 46.088L133.022 46.242C132.826 47.9407 132.597 49.406 132.336 50.638C132.084 51.87 131.79 52.8873 131.454 53.69C131.118 54.4833 130.735 55.076 130.306 55.468C129.886 55.8507 129.41 56.042 128.878 56.042C128.449 56.042 128.047 55.93 127.674 55.706C127.31 55.482 126.988 55.174 126.708 54.782C126.437 54.3807 126.223 53.9187 126.064 53.396C125.915 52.864 125.84 52.2947 125.84 51.688C125.84 50.82 126.003 50.0173 126.33 49.28C126.657 48.5427 127.114 47.908 127.702 47.376C128.29 46.8347 128.985 46.4147 129.788 46.116C130.591 45.8173 131.468 45.668 132.42 45.668C133.54 45.668 134.529 45.8827 135.388 46.312C136.256 46.732 136.933 47.334 137.418 48.118C137.913 48.902 138.16 49.8353 138.16 50.918C138.16 51.646 138.048 52.3273 137.824 52.962C137.609 53.5873 137.301 54.1427 136.9 54.628C136.499 55.1133 136.018 55.51 135.458 55.818C134.907 56.126 134.301 56.3173 133.638 56.392L133.246 55.09ZM146.91 57.232V52.08H143.13V50.848H146.91V49.84H145.188V48.65H150.27V46.228H145.188V49.84H143.732V45.01H151.74V49.84H148.408V50.848H152.3V52.08H148.408V57.232H146.91ZM140.68 57.26V48.328H142.15V57.26H140.68ZM143.382 56.658L142.668 55.412C143.62 54.7493 144.432 54.068 145.104 53.368C145.785 52.6587 146.341 51.9167 146.77 51.142L147.848 51.618C146.877 53.4847 145.389 55.1647 143.382 56.658ZM139.714 52.528L139.182 50.848C139.611 50.26 139.989 49.644 140.316 49C140.643 48.356 140.927 47.6747 141.17 46.956C141.413 46.228 141.613 45.444 141.772 44.604L143.158 44.856C143.009 45.7427 142.808 46.5827 142.556 47.376C142.304 48.16 142.015 48.874 141.688 49.518L141.618 49.196C141.515 49.476 141.389 49.7653 141.24 50.064C141.1 50.3627 140.941 50.666 140.764 50.974C140.596 51.2727 140.419 51.5573 140.232 51.828C140.055 52.0893 139.882 52.3227 139.714 52.528ZM152.02 56.686C151.003 55.9393 150.125 55.1507 149.388 54.32C148.66 53.48 148.058 52.5933 147.582 51.66L148.59 51.142C149.019 51.926 149.565 52.6727 150.228 53.382C150.891 54.082 151.698 54.7727 152.65 55.454L152.02 56.686ZM158.572 52.36V47.936H160.07V48.79H166.02V49.63H160.07V50.12H166.02V50.96H160.07V51.45H162.128V48.3H159.188V47.39H166.272V48.3H163.64V51.45H166.272V52.36H158.572ZM153.84 57.33V53.13H157.648V56.77H155.17V55.58H156.388V54.32H155.17V57.33H153.84ZM153.952 52.332V51.128H157.592V52.332H153.952ZM153.952 50.33V49.14H157.592V50.33H153.952ZM158.194 57.078L157.886 55.902C158.754 55.79 159.552 55.6453 160.28 55.468C161.008 55.2813 161.657 55.076 162.226 54.852C162.795 54.628 163.276 54.39 163.668 54.138C164.069 53.886 164.373 53.6293 164.578 53.368L165.88 53.872C165.6 54.1987 165.227 54.5207 164.76 54.838C164.303 55.146 163.752 55.4447 163.108 55.734C162.464 56.014 161.731 56.266 160.91 56.49C160.089 56.7233 159.183 56.9193 158.194 57.078ZM166.258 57.078C165.614 56.994 164.956 56.8633 164.284 56.686C163.621 56.5087 162.963 56.2987 162.31 56.056C161.666 55.8133 161.059 55.5427 160.49 55.244C159.93 54.9453 159.431 54.6373 158.992 54.32L160.042 53.466C160.406 53.802 160.905 54.1287 161.54 54.446C162.184 54.7633 162.931 55.048 163.78 55.3C164.629 55.552 165.553 55.7527 166.552 55.902L166.258 57.078ZM153.56 48.328V47.068H157.872V48.328H153.56ZM158.25 53.872V52.752H165.88V53.872H158.25ZM153.84 46.312V45.08H157.62V46.312H153.84ZM158.684 50.232L157.354 49.896C157.746 49.3453 158.082 48.804 158.362 48.272C158.642 47.74 158.861 47.2173 159.02 46.704L160.448 46.816C160.364 47.0773 160.266 47.3433 160.154 47.614C160.051 47.8847 159.93 48.1553 159.79 48.426L159.72 48.538C159.58 48.818 159.421 49.098 159.244 49.378C159.076 49.658 158.889 49.9427 158.684 50.232ZM163.57 48.188L162.1 48.062C162.184 47.838 162.263 47.6187 162.338 47.404C162.422 47.1893 162.497 46.956 162.562 46.704L164.018 46.816C163.943 47.068 163.873 47.306 163.808 47.53C163.743 47.7447 163.663 47.964 163.57 48.188ZM159.888 47.012V46.41H158.152V45.22H159.888V44.45H161.26V45.22H163.43V44.45H164.788V45.22H166.328V46.41H164.788V47.012H163.43V46.41H161.26V47.012H159.888ZM168.54 57.05L167.742 55.902C168.899 55.342 169.879 54.656 170.682 53.844C171.494 53.032 172.11 52.108 172.53 51.072C172.95 50.036 173.16 48.902 173.16 47.67V44.66H174.7V47.67C174.7 48.6687 174.546 49.644 174.238 50.596C173.939 51.5387 173.515 52.4253 172.964 53.256C172.413 54.0773 171.76 54.8147 171.004 55.468C170.257 56.112 169.436 56.6393 168.54 57.05ZM179.46 57.05C178.564 56.6393 177.738 56.112 176.982 55.468C176.235 54.8147 175.587 54.0773 175.036 53.256C174.485 52.4253 174.056 51.5387 173.748 50.596C173.449 49.644 173.3 48.6687 173.3 47.67H174.7C174.7 48.902 174.915 50.036 175.344 51.072C175.783 52.108 176.413 53.032 177.234 53.844C178.065 54.656 179.073 55.342 180.258 55.902L179.46 57.05ZM167.98 49V47.67H180.02V49H167.98ZM178.41 47.376C178.009 46.9653 177.617 46.5827 177.234 46.228C176.851 45.8733 176.45 45.5093 176.03 45.136L176.982 44.1C177.421 44.4827 177.836 44.8607 178.228 45.234C178.629 45.598 179.026 45.9853 179.418 46.396L178.41 47.376ZM183.044 54.978C184.556 54.9407 185.877 54.7587 187.006 54.432C188.135 54.1053 189.092 53.6247 189.876 52.99C190.669 52.346 191.299 51.5433 191.766 50.582C192.233 49.6113 192.555 48.4633 192.732 47.138L194.16 47.362C193.889 49.35 193.32 51.002 192.452 52.318C191.584 53.6247 190.389 54.614 188.868 55.286C187.347 55.9487 185.475 56.3173 183.254 56.392L183.044 54.978ZM187.244 50.848C186.367 50.6333 185.55 50.4607 184.794 50.33C184.047 50.19 183.273 50.0733 182.47 49.98L182.764 48.678C183.576 48.7807 184.355 48.902 185.102 49.042C185.858 49.1727 186.675 49.3453 187.552 49.56L187.244 50.848ZM188.056 47.488C187.16 47.2827 186.32 47.11 185.536 46.97C184.761 46.83 183.949 46.7133 183.1 46.62L183.394 45.318C184.253 45.4207 185.074 45.542 185.858 45.682C186.642 45.8127 187.477 45.9853 188.364 46.2L188.056 47.488ZM197.408 56.112V54.796H201.258V49.364H197.632V48.048H206.368V49.364H202.742V54.796H206.592V56.112H197.408ZM216.112 56.476V45.22H217.61V55.804L216.742 55.034C217.582 55.034 218.315 54.8427 218.94 54.46C219.575 54.0773 220.088 53.5127 220.48 52.766C220.881 52.0193 221.152 51.1047 221.292 50.022L222.692 50.218C222.533 51.5247 222.188 52.6493 221.656 53.592C221.133 54.5253 220.457 55.2393 219.626 55.734C218.795 56.2287 217.834 56.476 216.742 56.476H216.112ZM209.322 55.384C209.873 55.1413 210.325 54.8707 210.68 54.572C211.035 54.264 211.31 53.8907 211.506 53.452C211.711 53.004 211.851 52.4487 211.926 51.786C212.01 51.1233 212.052 50.302 212.052 49.322V45.22H213.522V49.42C213.522 50.512 213.461 51.4547 213.34 52.248C213.228 53.032 213.041 53.6993 212.78 54.25C212.519 54.8007 212.164 55.2673 211.716 55.65C211.277 56.0233 210.731 56.35 210.078 56.63L209.322 55.384ZM225.408 55.37C226.435 55.2673 227.387 55.0527 228.264 54.726C229.151 54.39 229.949 53.9653 230.658 53.452C231.377 52.9293 231.988 52.332 232.492 51.66C232.996 50.9787 233.383 50.2367 233.654 49.434C233.925 48.622 234.06 47.7633 234.06 46.858L234.69 47.558H227.83V46.228H235.572V46.858C235.572 47.9127 235.418 48.9113 235.11 49.854C234.811 50.7873 234.377 51.646 233.808 52.43C233.239 53.214 232.553 53.9093 231.75 54.516C230.957 55.1133 230.061 55.5987 229.062 55.972C228.073 56.3453 226.999 56.5927 225.842 56.714L225.408 55.37ZM223.56 50.372C224.26 49.868 224.909 49.2987 225.506 48.664C226.113 48.02 226.649 47.3433 227.116 46.634C227.583 45.9153 227.947 45.2013 228.208 44.492L229.692 44.758C229.412 45.6073 229.025 46.4287 228.53 47.222C228.045 48.006 227.461 48.7527 226.78 49.462C226.108 50.162 225.352 50.806 224.512 51.394L223.56 50.372ZM232.324 53.48C231.503 52.808 230.7 52.1873 229.916 51.618C229.141 51.0487 228.371 50.526 227.606 50.05L228.488 48.902C229.347 49.434 230.168 49.9893 230.952 50.568C231.745 51.1373 232.501 51.7253 233.22 52.332L232.324 53.48ZM238.26 51.688V50.218H249.74V51.688H238.26ZM259.162 53.998C259.162 52.906 259.092 52.038 258.952 51.394C258.821 50.7407 258.597 50.274 258.28 49.994C257.972 49.7047 257.552 49.56 257.02 49.56C256.563 49.56 256.124 49.672 255.704 49.896C255.284 50.1107 254.859 50.4607 254.43 50.946C254.001 51.4313 253.534 52.0753 253.03 52.878L251.812 52.178C252.279 51.4593 252.689 50.792 253.044 50.176C253.408 49.56 253.739 48.958 254.038 48.37C254.337 47.782 254.612 47.18 254.864 46.564C255.116 45.948 255.359 45.2807 255.592 44.562L257.048 44.814C256.749 45.6913 256.432 46.5033 256.096 47.25C255.769 47.9967 255.401 48.7433 254.99 49.49L254.584 49.252C255.013 48.9627 255.471 48.7433 255.956 48.594C256.441 48.4447 256.936 48.37 257.44 48.37C258.215 48.37 258.835 48.5567 259.302 48.93C259.769 49.3033 260.105 49.9053 260.31 50.736C260.525 51.5573 260.632 52.6447 260.632 53.998H259.162ZM258.952 56.784C257.515 56.784 256.39 56.5693 255.578 56.14C254.775 55.72 254.374 55.1273 254.374 54.362C254.374 53.83 254.579 53.3027 254.99 52.78C255.401 52.2573 255.993 51.7627 256.768 51.296C257.552 50.82 258.49 50.386 259.582 49.994C260.674 49.5927 261.901 49.2473 263.264 48.958L263.474 50.176C262.326 50.428 261.285 50.7173 260.352 51.044C259.419 51.3613 258.616 51.702 257.944 52.066C257.272 52.4207 256.754 52.7847 256.39 53.158C256.026 53.522 255.844 53.8813 255.844 54.236C255.844 54.656 256.115 54.9827 256.656 55.216C257.197 55.44 257.967 55.552 258.966 55.552C259.545 55.552 260.189 55.5147 260.898 55.44C261.617 55.3653 262.373 55.2533 263.166 55.104L263.362 56.35C262.895 56.434 262.401 56.5087 261.878 56.574C261.355 56.6393 260.842 56.6907 260.338 56.728C259.834 56.7653 259.372 56.784 258.952 56.784ZM251.84 47.25V46.06H262.97V47.25H251.84ZM268.864 57.078C268.435 56.5087 267.973 55.9767 267.478 55.482C266.993 54.9873 266.461 54.5253 265.882 54.096L266.89 53.06C267.469 53.508 268.019 53.998 268.542 54.53C269.065 55.0527 269.55 55.6127 269.998 56.21L268.864 57.078ZM279.7 51.38V49.91H292.3V51.38H279.7ZM298.908 53.144L298.432 51.814C299.963 51.0673 301.33 50.1013 302.534 48.916C303.747 47.7213 304.718 46.396 305.446 44.94L306.678 45.486C306.165 46.494 305.525 47.4647 304.76 48.398C303.995 49.3313 303.117 50.1993 302.128 51.002C301.148 51.8047 300.075 52.5187 298.908 53.144ZM294.498 56.504L293.35 56.294C293.481 55.6593 293.593 55.0153 293.686 54.362C293.779 53.6993 293.845 53.0413 293.882 52.388L295.03 52.5C294.993 53.172 294.927 53.844 294.834 54.516C294.741 55.188 294.629 55.8507 294.498 56.504ZM295.394 57.26V51.352H296.836V57.26H295.394ZM297.452 56.042C297.433 55.6593 297.405 55.258 297.368 54.838C297.331 54.418 297.289 54.0027 297.242 53.592C297.195 53.1813 297.149 52.7987 297.102 52.444L298.138 52.318C298.194 52.6727 298.245 53.06 298.292 53.48C298.348 53.8907 298.395 54.3107 298.432 54.74C298.479 55.1693 298.511 55.5753 298.53 55.958L297.452 56.042ZM293.532 51.87L293.49 50.652L298.04 50.372V51.548L293.532 51.87ZM295.17 50.12C295.011 49.8493 294.829 49.5553 294.624 49.238C294.419 48.9113 294.209 48.58 293.994 48.244C293.779 47.908 293.579 47.6 293.392 47.32L294.148 46.102C294.344 46.4007 294.545 46.718 294.75 47.054C294.965 47.3807 295.17 47.7027 295.366 48.02C295.562 48.3373 295.739 48.6313 295.898 48.902L295.17 50.12ZM295.478 51.66L294.484 50.96C295.025 50.1573 295.534 49.3547 296.01 48.552C296.495 47.74 296.953 46.9 297.382 46.032L298.488 46.62C298.031 47.5067 297.555 48.3653 297.06 49.196C296.575 50.0173 296.047 50.8387 295.478 51.66ZM297.97 52.122C297.905 51.7767 297.825 51.408 297.732 51.016C297.639 50.6147 297.541 50.218 297.438 49.826C297.335 49.434 297.233 49.0747 297.13 48.748L298.278 48.454C298.381 48.7993 298.483 49.1727 298.586 49.574C298.689 49.966 298.787 50.3627 298.88 50.764C298.973 51.1653 299.053 51.5433 299.118 51.898L297.97 52.122ZM299.72 57.232V51.772H301.162V55.468H304.662V54.292H301.162V53.13H304.662V51.968H300.98V50.75H306.132V57.232H304.662V56.672H301.162V57.232H299.72ZM295.296 48.23L294.302 47.502C294.563 47.0167 294.801 46.5267 295.016 46.032C295.24 45.5373 295.455 45.0333 295.66 44.52L296.85 45.038C296.617 45.5793 296.369 46.116 296.108 46.648C295.847 47.18 295.576 47.7073 295.296 48.23ZM298.782 49.588V48.37H301.12V46.9H299.16V45.71H301.12V44.408H302.59V45.71H305.152V46.9H302.59V48.37H306.65V49.588H298.782ZM316.254 56.098C315.405 56.098 314.649 55.986 313.986 55.762C313.333 55.5287 312.819 55.2113 312.446 54.81C312.082 54.3993 311.9 53.9327 311.9 53.41C311.9 52.4673 312.53 51.5013 313.79 50.512L314.84 51.324C314.327 51.7253 313.949 52.0847 313.706 52.402C313.473 52.71 313.356 53.0087 313.356 53.298C313.356 53.5967 313.473 53.858 313.706 54.082C313.949 54.2967 314.285 54.4647 314.714 54.586C315.153 54.7073 315.666 54.768 316.254 54.768C316.73 54.768 317.257 54.7353 317.836 54.67C318.415 54.5953 318.998 54.4973 319.586 54.376L319.796 55.678C319.199 55.8087 318.597 55.9113 317.99 55.986C317.383 56.0607 316.805 56.098 316.254 56.098ZM312.544 47.558V46.228H319.712V47.558H312.544ZM309.24 56.756C308.997 55.7947 308.82 54.852 308.708 53.928C308.596 52.9947 308.54 52.0053 308.54 50.96C308.54 49.924 308.596 48.944 308.708 48.02C308.82 47.096 308.997 46.1533 309.24 45.192L310.71 45.388C310.486 46.3027 310.318 47.2127 310.206 48.118C310.103 49.0233 310.052 49.9707 310.052 50.96C310.052 51.9493 310.103 52.9013 310.206 53.816C310.318 54.7213 310.486 55.622 310.71 56.518L309.24 56.756ZM324.15 57.19C323.674 57.19 323.254 57.0873 322.89 56.882C322.535 56.686 322.26 56.4107 322.064 56.056C321.868 55.7013 321.77 55.286 321.77 54.81C321.77 54.334 321.868 53.9187 322.064 53.564C322.26 53.2 322.535 52.92 322.89 52.724C323.254 52.528 323.674 52.43 324.15 52.43C324.626 52.43 325.041 52.528 325.396 52.724C325.751 52.92 326.026 53.2 326.222 53.564C326.427 53.9187 326.53 54.334 326.53 54.81C326.53 55.286 326.427 55.7013 326.222 56.056C326.026 56.4107 325.751 56.686 325.396 56.882C325.041 57.0873 324.626 57.19 324.15 57.19ZM324.15 55.972C324.505 55.972 324.785 55.8647 324.99 55.65C325.205 55.4353 325.312 55.1553 325.312 54.81C325.312 54.4553 325.205 54.1753 324.99 53.97C324.785 53.7553 324.505 53.648 324.15 53.648C323.805 53.648 323.525 53.7553 323.31 53.97C323.095 54.1753 322.988 54.4553 322.988 54.81C322.988 55.1553 323.095 55.4353 323.31 55.65C323.525 55.8647 323.805 55.972 324.15 55.972Z" fill="#F58BAB"/>
</svg>
