<svg xmlns="http://www.w3.org/2000/svg" width="1440" height="186" viewBox="0 0 1440 186" fill="none"><path d="M17.049 142H1.39176L34.7939 21.961H48.0156L81.5918 142H65.9345L59.1497 114.513H23.8338L17.049 142ZM41.4048 47.3605L28.1831 100.943H54.6265L41.4048 47.3605ZM126.782 142V55.0152H140.873V63.5397C143.483 58.3206 149.224 53.6234 157.922 53.6234C172.014 53.6234 182.626 63.3657 182.626 87.7215V142H168.708V87.8954C168.708 70.3245 162.793 66.4972 155.313 66.4972C145.049 66.4972 140.699 74.6738 140.699 87.7215V142H126.782ZM241.916 121.82L252.18 128.952C247.483 139.216 239.654 143.392 227.302 143.392C207.296 143.392 197.205 128.256 197.205 104.075V92.5926C197.205 67.8889 207.122 53.6234 225.041 53.6234C244.003 53.6234 253.05 65.6273 253.05 92.5926V101.639H211.123V104.075C211.123 119.036 215.298 130.866 227.128 130.866C235.479 130.866 238.436 127.561 241.916 121.82ZM225.041 66.1492C214.428 66.1492 211.123 73.9779 211.123 89.4612H239.132C239.132 71.3683 234.957 66.1492 225.041 66.1492ZM310.568 78.1531L293.519 142H281.863L260.987 55.0152H275.948L288.3 116.079L303.958 55.0152H317.179L333.01 116.6L345.188 55.0152H359.976L339.447 142H327.617L310.568 78.1531ZM446.466 121.82L456.73 128.952C452.033 139.216 444.204 143.392 431.852 143.392C411.846 143.392 401.756 128.256 401.756 104.075V92.5926C401.756 67.8889 411.672 53.6234 429.591 53.6234C448.553 53.6234 457.6 65.6273 457.6 92.5926V101.639H415.673V104.075C415.673 119.036 419.848 130.866 431.678 130.866C440.029 130.866 442.986 127.561 446.466 121.82ZM429.591 66.1492C418.979 66.1492 415.673 73.9779 415.673 89.4612H443.682C443.682 71.3683 439.507 66.1492 429.591 66.1492ZM522.235 65.4534L511.449 73.6299C508.491 68.5848 505.36 66.4972 500.663 66.4972C492.834 66.4972 487.789 73.108 487.789 87.5475V142H473.871V55.0152H487.789V63.5397C490.399 57.9727 495.618 53.6234 503.62 53.6234C511.797 53.6234 517.886 57.6247 522.235 65.4534ZM525.097 116.6C525.097 97.8117 536.405 91.7228 552.237 91.7228H565.98V81.6325C565.98 69.6286 562.501 66.4972 552.585 66.4972C544.234 66.4972 540.929 67.715 537.449 74.8477L526.837 68.0629C531.708 57.9727 539.015 53.6234 552.759 53.6234C570.677 53.6234 579.898 60.7562 579.898 81.6325V142H565.98V133.475C563.371 139.39 559.543 143.392 549.801 143.392C533.796 143.392 525.097 133.475 525.097 116.6ZM565.98 108.598V103.553H553.107C542.842 103.553 539.015 108.25 539.015 116.948C539.015 126.691 544.06 130.518 552.063 130.518C559.543 130.518 565.98 128.082 565.98 108.598ZM688.039 92.5926V104.075C688.039 128.952 677.427 143.392 658.638 143.392C639.849 143.392 629.411 128.952 629.411 104.075V92.5926C629.411 67.715 639.849 53.6234 658.638 53.6234C677.427 53.6234 688.039 67.715 688.039 92.5926ZM658.638 130.866C670.642 130.866 674.121 119.036 674.121 104.075V92.5926C674.121 76.2395 670.642 66.1492 658.638 66.1492C646.634 66.1492 643.329 76.2395 643.329 92.5926V104.075C643.329 119.036 646.634 130.866 658.638 130.866ZM696.627 55.0152H705.5V48.7523C705.5 30.6594 710.371 21.961 727.42 21.961H731.595V35.1826H728.29C720.635 35.1826 719.417 39.5319 719.417 51.1879V55.0152H731.595V67.541H719.417V142H705.5V67.541H696.627V55.0152ZM820.577 63.7137V21.961H834.494V142H820.577V134.345C817.097 140.086 812.226 143.392 802.832 143.392C784.391 143.392 775.519 126.691 775.519 104.075V92.5926C775.519 67.715 786.479 53.6234 802.832 53.6234C812.052 53.6234 817.445 57.7987 820.577 63.7137ZM805.093 130.866C816.575 130.866 820.577 119.036 820.577 104.075V91.3748C820.577 75.7176 814.662 66.1492 805.093 66.1492C794.655 66.1492 789.436 76.0655 789.436 92.5926V104.075C789.436 118.862 794.133 130.866 805.093 130.866ZM907.71 92.5926V104.075C907.71 128.952 897.097 143.392 878.309 143.392C859.52 143.392 849.082 128.952 849.082 104.075V92.5926C849.082 67.715 859.52 53.6234 878.309 53.6234C897.097 53.6234 907.71 67.715 907.71 92.5926ZM878.309 130.866C890.313 130.866 893.792 119.036 893.792 104.075V92.5926C893.792 76.2395 890.313 66.1492 878.309 66.1492C866.305 66.1492 862.999 76.2395 862.999 92.5926V104.075C862.999 119.036 866.305 130.866 878.309 130.866ZM963.966 63.7137V55.0152H977.883V140.26C977.883 164.442 967.793 176.098 947.96 176.098C934.739 176.098 926.91 171.749 922.039 161.659L932.651 154.352C935.783 160.441 939.262 163.572 947.613 163.572C959.616 163.572 963.966 155.222 963.966 140.26V134.345C960.486 140.086 955.615 143.392 946.221 143.392C927.78 143.392 918.908 126.691 918.908 104.075V92.5926C918.908 67.715 929.868 53.6234 946.221 53.6234C955.441 53.6234 960.834 57.7987 963.966 63.7137ZM948.482 130.866C959.964 130.866 963.966 119.036 963.966 104.075V91.3748C963.966 75.7176 958.051 66.1492 948.482 66.1492C938.044 66.1492 932.825 76.0655 932.825 92.5926V104.075C932.825 118.862 937.522 130.866 948.482 130.866ZM1079.14 68.0629L1069.05 75.3696C1065.57 69.2807 1062.44 66.4972 1053.92 66.4972C1046.44 66.4972 1042.09 70.4985 1042.09 78.1531C1042.09 86.3297 1046.61 89.8091 1056 91.8967C1068.53 94.6803 1081.23 99.8993 1081.23 117.818C1081.23 132.954 1072.36 143.392 1054.61 143.392C1040.35 143.392 1032.69 138.347 1027.3 129.3L1037.22 121.298C1040.69 127.561 1045.22 130.518 1053.74 130.518C1062.79 130.518 1067.31 125.995 1067.31 118.166C1067.31 110.511 1064.18 107.032 1051.83 104.249C1040.17 101.639 1028.17 95.2022 1028.17 78.3271C1028.17 63.8876 1037.56 53.6234 1053.39 53.6234C1064.88 53.6234 1073.57 57.2768 1079.14 68.0629ZM1096.53 142V21.961H1110.62V63.5397C1113.23 58.3206 1118.97 53.6234 1127.67 53.6234C1141.76 53.6234 1152.37 63.3657 1152.37 87.7215V142H1138.45V87.8954C1138.45 70.3245 1132.54 66.4972 1125.06 66.4972C1114.79 66.4972 1110.44 74.6738 1110.44 87.7215V142H1096.53ZM1211.66 121.82L1221.92 128.952C1217.23 139.216 1209.4 143.392 1197.05 143.392C1177.04 143.392 1166.95 128.256 1166.95 104.075V92.5926C1166.95 67.8889 1176.87 53.6234 1194.79 53.6234C1213.75 53.6234 1222.79 65.6273 1222.79 92.5926V101.639H1180.87V104.075C1180.87 119.036 1185.04 130.866 1196.87 130.866C1205.22 130.866 1208.18 127.561 1211.66 121.82ZM1194.79 66.1492C1184.17 66.1492 1180.87 73.9779 1180.87 89.4612H1208.88C1208.88 71.3683 1204.7 66.1492 1194.79 66.1492ZM1239.07 115.209V21.961H1252.98V111.729C1252.98 121.124 1252.64 129.126 1263.77 129.126V142C1244.98 142 1239.07 133.302 1239.07 115.209ZM1272.56 67.541V55.0152H1281.43V35.8785H1295.35V55.0152H1309.79V67.541H1295.35V111.729C1295.35 123.733 1295.87 128.778 1304.75 128.778H1309.79V142H1303.7C1286.48 142 1281.43 133.302 1281.43 115.209V67.541H1272.56ZM1364.9 121.82L1375.17 128.952C1370.47 139.216 1362.64 143.392 1350.29 143.392C1330.28 143.392 1320.19 128.256 1320.19 104.075V92.5926C1320.19 67.8889 1330.11 53.6234 1348.03 53.6234C1366.99 53.6234 1376.04 65.6273 1376.04 92.5926V101.639H1334.11V104.075C1334.11 119.036 1338.29 130.866 1350.12 130.866C1358.47 130.866 1361.42 127.561 1364.9 121.82ZM1348.03 66.1492C1337.42 66.1492 1334.11 73.9779 1334.11 89.4612H1362.12C1362.12 71.3683 1357.94 66.1492 1348.03 66.1492ZM1440.67 65.4534L1429.89 73.6299C1426.93 68.5848 1423.8 66.4972 1419.1 66.4972C1411.27 66.4972 1406.23 73.108 1406.23 87.5475V142H1392.31V55.0152H1406.23V63.5397C1408.84 57.9727 1414.05 53.6234 1422.06 53.6234C1430.23 53.6234 1436.32 57.6247 1440.67 65.4534Z" fill="white"></path><rect y="151" width="1440" height="33" fill="white"></rect><path d="M563.52 175.44V170.032H560.8V168.64H563.52V167.632H560.8V166.288H568.24V167.632H565.2V168.64H568.08V170.032H565.2V175.44H563.52ZM561.408 174.384L560.464 173.136C561.157 172.549 561.739 171.957 562.208 171.36C562.677 170.752 563.061 170.117 563.36 169.456L564.4 170.064C564.059 170.875 563.637 171.648 563.136 172.384C562.635 173.109 562.059 173.776 561.408 174.384ZM566.576 173.168C566.213 172.741 565.829 172.325 565.424 171.92C565.029 171.515 564.603 171.109 564.144 170.704L564.944 169.744C565.381 170.117 565.813 170.501 566.24 170.896C566.667 171.291 567.088 171.696 567.504 172.112L566.576 173.168ZM562.608 166.768C562.491 166.267 562.357 165.76 562.208 165.248C562.059 164.736 561.899 164.235 561.728 163.744L563.152 163.36C563.323 163.851 563.483 164.363 563.632 164.896C563.781 165.419 563.915 165.936 564.032 166.448L562.608 166.768ZM567.936 175.28L566.704 174.176C567.045 173.696 567.344 173.205 567.6 172.704C567.856 172.203 568.075 171.643 568.256 171.024C568.437 170.405 568.581 169.691 568.688 168.88C568.795 168.069 568.869 167.115 568.912 166.016C568.965 164.917 568.992 163.637 568.992 162.176H570.592C570.592 163.723 570.56 165.088 570.496 166.272C570.432 167.456 570.331 168.501 570.192 169.408C570.064 170.304 569.893 171.104 569.68 171.808C569.477 172.501 569.232 173.131 568.944 173.696C568.656 174.251 568.32 174.779 567.936 175.28ZM565.984 167.424L564.608 167.056C564.896 166.533 565.157 165.952 565.392 165.312C565.637 164.672 565.84 164.011 566 163.328L567.472 163.52C567.312 164.235 567.104 164.928 566.848 165.6C566.592 166.272 566.304 166.88 565.984 167.424ZM572.32 175.296V167.376H569.472V165.856H575.44V167.376H573.952V175.296H572.32ZM560.88 163.792V162.4H563.52V160.8H565.2V162.4H568.288V163.792H560.88ZM569.008 163.696L568.992 162.176C570.133 162.091 571.189 161.957 572.16 161.776C573.141 161.584 574.011 161.349 574.768 161.072L575.184 162.576C573.52 163.141 571.461 163.515 569.008 163.696ZM583.712 174.8C582.528 174.8 581.552 174.613 580.784 174.24C580.027 173.867 579.467 173.291 579.104 172.512C578.741 171.733 578.56 170.736 578.56 169.52V161.68H580.288V169.52C580.288 170.811 580.56 171.749 581.104 172.336C581.648 172.912 582.517 173.2 583.712 173.2C584.587 173.2 585.355 173.045 586.016 172.736C586.677 172.416 587.275 171.904 587.808 171.2C588.352 170.485 588.869 169.541 589.36 168.368L590.96 168.992C590.533 170.048 590.08 170.944 589.6 171.68C589.12 172.416 588.592 173.013 588.016 173.472C587.451 173.931 586.811 174.267 586.096 174.48C585.392 174.693 584.597 174.8 583.712 174.8ZM597.152 174.4C596.629 174.4 596.139 174.229 595.68 173.888C595.232 173.547 594.837 173.072 594.496 172.464C594.155 171.856 593.888 171.147 593.696 170.336C593.515 169.515 593.424 168.629 593.424 167.68C593.424 166.923 593.488 166.112 593.616 165.248C593.755 164.373 593.957 163.467 594.224 162.528L595.888 162.736C595.643 163.6 595.456 164.437 595.328 165.248C595.2 166.048 595.136 166.8 595.136 167.504C595.136 168.197 595.195 168.853 595.312 169.472C595.429 170.08 595.589 170.619 595.792 171.088C595.995 171.557 596.224 171.925 596.48 172.192C596.736 172.459 597.008 172.592 597.296 172.592C597.563 172.592 597.856 172.48 598.176 172.256C598.496 172.032 598.821 171.728 599.152 171.344C599.483 170.949 599.792 170.507 600.08 170.016C600.368 169.515 600.608 168.992 600.8 168.448L602.32 169.216C602.064 169.931 601.739 170.603 601.344 171.232C600.96 171.861 600.533 172.416 600.064 172.896C599.595 173.365 599.109 173.733 598.608 174C598.107 174.267 597.621 174.4 597.152 174.4ZM605.328 172.864C605.328 171.637 605.243 170.427 605.072 169.232C604.912 168.027 604.672 166.875 604.352 165.776C604.032 164.667 603.648 163.659 603.2 162.752L604.768 162.272C605.259 163.221 605.669 164.267 606 165.408C606.331 166.539 606.581 167.733 606.752 168.992C606.933 170.251 607.024 171.541 607.024 172.864H605.328ZM619.52 175.312C619.349 175.312 619.088 175.301 618.736 175.28C618.395 175.269 617.989 175.253 617.52 175.232L617.44 173.808C617.856 173.829 618.224 173.845 618.544 173.856C618.864 173.867 619.093 173.872 619.232 173.872C619.509 173.872 619.707 173.861 619.824 173.84C619.941 173.808 620.011 173.728 620.032 173.6C620.064 173.472 620.08 173.259 620.08 172.96V169.84H614.32V168.4H620.08V166.928H614.32V165.488H617.952V163.728H615.008V162.32H617.952V160.72H619.68V162.32H622.752V163.728H619.68V165.488H623.328V166.928H621.792V168.4H623.328V169.84H621.792V172.912C621.792 173.467 621.765 173.904 621.712 174.224C621.669 174.544 621.573 174.779 621.424 174.928C621.275 175.088 621.045 175.189 620.736 175.232C620.437 175.285 620.032 175.312 619.52 175.312ZM609.088 174.96V161.68H613.84V174H610.688V172.56H612.288V168.368H610.688V166.928H612.288V163.152H610.688V174.96H609.088ZM617.264 173.568C616.901 173.163 616.507 172.747 616.08 172.32C615.664 171.893 615.248 171.499 614.832 171.136L615.936 170.064C616.363 170.427 616.784 170.821 617.2 171.248C617.627 171.675 618.021 172.096 618.384 172.512L617.264 173.568ZM637.52 175.408C637.232 175.408 636.912 175.312 636.56 175.12C636.208 174.928 635.851 174.613 635.488 174.176C635.136 173.739 634.795 173.157 634.464 172.432C634.133 171.707 633.835 170.816 633.568 169.76C633.312 168.693 633.104 167.44 632.944 166C632.795 164.549 632.72 162.885 632.72 161.008H634.4C634.4 162.715 634.48 164.24 634.64 165.584C634.811 166.928 635.024 168.096 635.28 169.088C635.536 170.08 635.803 170.901 636.08 171.552C636.357 172.203 636.613 172.688 636.848 173.008C637.093 173.328 637.28 173.488 637.408 173.488C637.493 173.488 637.568 173.435 637.632 173.328C637.707 173.211 637.787 172.965 637.872 172.592C637.957 172.208 638.053 171.611 638.16 170.8L639.552 171.344C639.467 172.144 639.349 172.811 639.2 173.344C639.061 173.867 638.901 174.277 638.72 174.576C638.539 174.885 638.347 175.099 638.144 175.216C637.941 175.344 637.733 175.408 637.52 175.408ZM626.32 175.44V165.424H628V175.44H626.32ZM625.184 169.856L624.336 168.272C624.912 167.589 625.419 166.875 625.856 166.128C626.293 165.381 626.672 164.581 626.992 163.728C627.323 162.875 627.595 161.957 627.808 160.976L629.44 161.344C629.248 162.325 628.987 163.248 628.656 164.112C628.336 164.965 627.957 165.755 627.52 166.48V166C627.392 166.32 627.237 166.656 627.056 167.008C626.875 167.349 626.677 167.696 626.464 168.048C626.261 168.389 626.048 168.715 625.824 169.024C625.611 169.333 625.397 169.611 625.184 169.856ZM628.768 166.688L628.672 165.216L639.2 164.256L639.28 165.728L628.768 166.688ZM637.744 164.128C637.349 163.723 636.923 163.312 636.464 162.896C636.016 162.48 635.589 162.107 635.184 161.776L636.288 160.752C636.715 161.093 637.147 161.472 637.584 161.888C638.021 162.293 638.443 162.704 638.848 163.12L637.744 164.128ZM649.424 172.96C650 172.896 650.528 172.731 651.008 172.464C651.499 172.197 651.92 171.851 652.272 171.424C652.635 170.997 652.912 170.512 653.104 169.968C653.307 169.413 653.408 168.821 653.408 168.192C653.408 167.285 653.2 166.496 652.784 165.824C652.368 165.152 651.787 164.635 651.04 164.272C650.304 163.899 649.445 163.712 648.464 163.712C647.632 163.712 646.859 163.851 646.144 164.128C645.429 164.405 644.8 164.789 644.256 165.28C643.712 165.76 643.285 166.325 642.976 166.976C642.677 167.627 642.528 168.325 642.528 169.072C642.528 169.627 642.613 170.155 642.784 170.656C642.965 171.157 643.195 171.568 643.472 171.888C643.749 172.197 644.043 172.352 644.352 172.352C644.8 172.352 645.221 171.968 645.616 171.2C646.021 170.432 646.384 169.328 646.704 167.888C647.035 166.437 647.307 164.699 647.52 162.672L649.168 162.848C648.944 164.789 648.683 166.464 648.384 167.872C648.096 169.28 647.76 170.443 647.376 171.36C646.992 172.267 646.555 172.944 646.064 173.392C645.584 173.829 645.04 174.048 644.432 174.048C643.941 174.048 643.483 173.92 643.056 173.664C642.64 173.408 642.272 173.056 641.952 172.608C641.643 172.149 641.397 171.621 641.216 171.024C641.045 170.416 640.96 169.765 640.96 169.072C640.96 168.08 641.147 167.163 641.52 166.32C641.893 165.477 642.416 164.752 643.088 164.144C643.76 163.525 644.555 163.045 645.472 162.704C646.389 162.363 647.392 162.192 648.48 162.192C649.76 162.192 650.891 162.437 651.872 162.928C652.864 163.408 653.637 164.096 654.192 164.992C654.757 165.888 655.04 166.955 655.04 168.192C655.04 169.024 654.912 169.803 654.656 170.528C654.411 171.243 654.059 171.877 653.6 172.432C653.141 172.987 652.592 173.44 651.952 173.792C651.323 174.144 650.629 174.363 649.872 174.448L649.424 172.96ZM665.04 175.408V169.52H660.72V168.112H665.04V166.96H663.072V165.6H668.88V162.832H663.072V166.96H661.408V161.44H670.56V166.96H666.752V168.112H671.2V169.52H666.752V175.408H665.04ZM657.92 175.44V165.232H659.6V175.44H657.92ZM661.008 174.752L660.192 173.328C661.28 172.571 662.208 171.792 662.976 170.992C663.755 170.181 664.389 169.333 664.88 168.448L666.112 168.992C665.003 171.125 663.301 173.045 661.008 174.752ZM656.816 170.032L656.208 168.112C656.699 167.44 657.131 166.736 657.504 166C657.877 165.264 658.203 164.485 658.48 163.664C658.757 162.832 658.987 161.936 659.168 160.976L660.752 161.264C660.581 162.277 660.352 163.237 660.064 164.144C659.776 165.04 659.445 165.856 659.072 166.592L658.992 166.224C658.875 166.544 658.731 166.875 658.56 167.216C658.4 167.557 658.219 167.904 658.016 168.256C657.824 168.597 657.621 168.923 657.408 169.232C657.205 169.531 657.008 169.797 656.816 170.032ZM670.88 174.784C669.717 173.931 668.715 173.029 667.872 172.08C667.04 171.12 666.352 170.107 665.808 169.04L666.96 168.448C667.451 169.344 668.075 170.197 668.832 171.008C669.589 171.808 670.512 172.597 671.6 173.376L670.88 174.784ZM678.368 169.84V164.784H680.08V165.76H686.88V166.72H680.08V167.28H686.88V168.24H680.08V168.8H682.432V165.2H679.072V164.16H687.168V165.2H684.16V168.8H687.168V169.84H678.368ZM672.96 175.52V170.72H677.312V174.88H674.48V173.52H675.872V172.08H674.48V175.52H672.96ZM673.088 169.808V168.432H677.248V169.808H673.088ZM673.088 167.52V166.16H677.248V167.52H673.088ZM677.936 175.232L677.584 173.888C678.576 173.76 679.488 173.595 680.32 173.392C681.152 173.179 681.893 172.944 682.544 172.688C683.195 172.432 683.744 172.16 684.192 171.872C684.651 171.584 684.997 171.291 685.232 170.992L686.72 171.568C686.4 171.941 685.973 172.309 685.44 172.672C684.917 173.024 684.288 173.365 683.552 173.696C682.816 174.016 681.979 174.304 681.04 174.56C680.101 174.827 679.067 175.051 677.936 175.232ZM687.152 175.232C686.416 175.136 685.664 174.987 684.896 174.784C684.139 174.581 683.387 174.341 682.64 174.064C681.904 173.787 681.211 173.477 680.56 173.136C679.92 172.795 679.349 172.443 678.848 172.08L680.048 171.104C680.464 171.488 681.035 171.861 681.76 172.224C682.496 172.587 683.349 172.912 684.32 173.2C685.291 173.488 686.347 173.717 687.488 173.888L687.152 175.232ZM672.64 165.232V163.792H677.568V165.232H672.64ZM678 171.568V170.288H686.72V171.568H678ZM672.96 162.928V161.52H677.28V162.928H672.96ZM678.496 167.408L676.976 167.024C677.424 166.395 677.808 165.776 678.128 165.168C678.448 164.56 678.699 163.963 678.88 163.376L680.512 163.504C680.416 163.803 680.304 164.107 680.176 164.416C680.059 164.725 679.92 165.035 679.76 165.344L679.68 165.472C679.52 165.792 679.339 166.112 679.136 166.432C678.944 166.752 678.731 167.077 678.496 167.408ZM684.08 165.072L682.4 164.928C682.496 164.672 682.587 164.421 682.672 164.176C682.768 163.931 682.853 163.664 682.928 163.376L684.592 163.504C684.507 163.792 684.427 164.064 684.352 164.32C684.277 164.565 684.187 164.816 684.08 165.072ZM679.872 163.728V163.04H677.888V161.68H679.872V160.8H681.44V161.68H683.92V160.8H685.472V161.68H687.232V163.04H685.472V163.728H683.92V163.04H681.44V163.728H679.872ZM689.76 175.2L688.848 173.888C690.171 173.248 691.291 172.464 692.208 171.536C693.136 170.608 693.84 169.552 694.32 168.368C694.8 167.184 695.04 165.888 695.04 164.48V161.04H696.8V164.48C696.8 165.621 696.624 166.736 696.272 167.824C695.931 168.901 695.445 169.915 694.816 170.864C694.187 171.803 693.44 172.645 692.576 173.392C691.723 174.128 690.784 174.731 689.76 175.2ZM702.24 175.2C701.216 174.731 700.272 174.128 699.408 173.392C698.555 172.645 697.813 171.803 697.184 170.864C696.555 169.915 696.064 168.901 695.712 167.824C695.371 166.736 695.2 165.621 695.2 164.48H696.8C696.8 165.888 697.045 167.184 697.536 168.368C698.037 169.552 698.757 170.608 699.696 171.536C700.645 172.464 701.797 173.248 703.152 173.888L702.24 175.2ZM689.12 166V164.48H702.88V166H689.12ZM701.04 164.144C700.581 163.675 700.133 163.237 699.696 162.832C699.259 162.427 698.8 162.011 698.32 161.584L699.408 160.4C699.909 160.837 700.384 161.269 700.832 161.696C701.291 162.112 701.744 162.555 702.192 163.024L701.04 164.144ZM706.336 172.832C708.064 172.789 709.573 172.581 710.864 172.208C712.155 171.835 713.248 171.285 714.144 170.56C715.051 169.824 715.771 168.907 716.304 167.808C716.837 166.699 717.205 165.387 717.408 163.872L719.04 164.128C718.731 166.4 718.08 168.288 717.088 169.792C716.096 171.285 714.731 172.416 712.992 173.184C711.253 173.941 709.115 174.363 706.576 174.448L706.336 172.832ZM711.136 168.112C710.133 167.867 709.2 167.669 708.336 167.52C707.483 167.36 706.597 167.227 705.68 167.12L706.016 165.632C706.944 165.749 707.835 165.888 708.688 166.048C709.552 166.197 710.485 166.395 711.488 166.64L711.136 168.112ZM712.064 164.272C711.04 164.037 710.08 163.84 709.184 163.68C708.299 163.52 707.371 163.387 706.4 163.28L706.736 161.792C707.717 161.909 708.656 162.048 709.552 162.208C710.448 162.357 711.403 162.555 712.416 162.8L712.064 164.272ZM722.752 174.128V172.624H727.152V166.416H723.008V164.912H732.992V166.416H728.848V172.624H733.248V174.128H722.752ZM744.128 174.544V161.68H745.84V173.776L744.848 172.896C745.808 172.896 746.645 172.677 747.36 172.24C748.085 171.803 748.672 171.157 749.12 170.304C749.579 169.451 749.888 168.405 750.048 167.168L751.648 167.392C751.467 168.885 751.072 170.171 750.464 171.248C749.867 172.315 749.093 173.131 748.144 173.696C747.195 174.261 746.096 174.544 744.848 174.544H744.128ZM736.368 173.296C736.997 173.019 737.515 172.709 737.92 172.368C738.325 172.016 738.64 171.589 738.864 171.088C739.099 170.576 739.259 169.941 739.344 169.184C739.44 168.427 739.488 167.488 739.488 166.368V161.68H741.168V166.48C741.168 167.728 741.099 168.805 740.96 169.712C740.832 170.608 740.619 171.371 740.32 172C740.021 172.629 739.616 173.163 739.104 173.6C738.603 174.027 737.979 174.4 737.232 174.72L736.368 173.296ZM754.752 173.28C755.925 173.163 757.013 172.917 758.016 172.544C759.029 172.16 759.941 171.675 760.752 171.088C761.573 170.491 762.272 169.808 762.848 169.04C763.424 168.261 763.867 167.413 764.176 166.496C764.485 165.568 764.64 164.587 764.64 163.552L765.36 164.352H757.52V162.832H766.368V163.552C766.368 164.757 766.192 165.899 765.84 166.976C765.499 168.043 765.003 169.024 764.352 169.92C763.701 170.816 762.917 171.611 762 172.304C761.093 172.987 760.069 173.541 758.928 173.968C757.797 174.395 756.571 174.677 755.248 174.816L754.752 173.28ZM752.64 167.568C753.44 166.992 754.181 166.341 754.864 165.616C755.557 164.88 756.171 164.107 756.704 163.296C757.237 162.475 757.653 161.659 757.952 160.848L759.648 161.152C759.328 162.123 758.885 163.061 758.32 163.968C757.765 164.864 757.099 165.717 756.32 166.528C755.552 167.328 754.688 168.064 753.728 168.736L752.64 167.568ZM762.656 171.12C761.717 170.352 760.8 169.643 759.904 168.992C759.019 168.341 758.139 167.744 757.264 167.2L758.272 165.888C759.253 166.496 760.192 167.131 761.088 167.792C761.995 168.443 762.859 169.115 763.68 169.808L762.656 171.12ZM769.44 169.072V167.392H782.56V169.072H769.44ZM793.328 171.712C793.328 170.464 793.248 169.472 793.088 168.736C792.939 167.989 792.683 167.456 792.32 167.136C791.968 166.805 791.488 166.64 790.88 166.64C790.357 166.64 789.856 166.768 789.376 167.024C788.896 167.269 788.411 167.669 787.92 168.224C787.429 168.779 786.896 169.515 786.32 170.432L784.928 169.632C785.461 168.811 785.931 168.048 786.336 167.344C786.752 166.64 787.131 165.952 787.472 165.28C787.813 164.608 788.128 163.92 788.416 163.216C788.704 162.512 788.981 161.749 789.248 160.928L790.912 161.216C790.571 162.219 790.208 163.147 789.824 164C789.451 164.853 789.029 165.707 788.56 166.56L788.096 166.288C788.587 165.957 789.109 165.707 789.664 165.536C790.219 165.365 790.784 165.28 791.36 165.28C792.245 165.28 792.955 165.493 793.488 165.92C794.021 166.347 794.405 167.035 794.64 167.984C794.885 168.923 795.008 170.165 795.008 171.712H793.328ZM793.088 174.896C791.445 174.896 790.16 174.651 789.232 174.16C788.315 173.68 787.856 173.003 787.856 172.128C787.856 171.52 788.091 170.917 788.56 170.32C789.029 169.723 789.707 169.157 790.592 168.624C791.488 168.08 792.56 167.584 793.808 167.136C795.056 166.677 796.459 166.283 798.016 165.952L798.256 167.344C796.944 167.632 795.755 167.963 794.688 168.336C793.621 168.699 792.704 169.088 791.936 169.504C791.168 169.909 790.576 170.325 790.16 170.752C789.744 171.168 789.536 171.579 789.536 171.984C789.536 172.464 789.845 172.837 790.464 173.104C791.083 173.36 791.963 173.488 793.104 173.488C793.765 173.488 794.501 173.445 795.312 173.36C796.133 173.275 796.997 173.147 797.904 172.976L798.128 174.4C797.595 174.496 797.029 174.581 796.432 174.656C795.835 174.731 795.248 174.789 794.672 174.832C794.096 174.875 793.568 174.896 793.088 174.896ZM784.96 164V162.64H797.68V164H784.96ZM804.416 175.232C803.925 174.581 803.397 173.973 802.832 173.408C802.277 172.843 801.669 172.315 801.008 171.824L802.16 170.64C802.821 171.152 803.451 171.712 804.048 172.32C804.645 172.917 805.2 173.557 805.712 174.24L804.416 175.232ZM816.8 168.72V167.04H831.2V168.72H816.8ZM838.752 170.736L838.208 169.216C839.957 168.363 841.52 167.259 842.896 165.904C844.283 164.539 845.392 163.024 846.224 161.36L847.632 161.984C847.045 163.136 846.315 164.245 845.44 165.312C844.565 166.379 843.563 167.371 842.432 168.288C841.312 169.205 840.085 170.021 838.752 170.736ZM833.712 174.576L832.4 174.336C832.549 173.611 832.677 172.875 832.784 172.128C832.891 171.371 832.965 170.619 833.008 169.872L834.32 170C834.277 170.768 834.203 171.536 834.096 172.304C833.989 173.072 833.861 173.829 833.712 174.576ZM834.736 175.44V168.688H836.384V175.44H834.736ZM837.088 174.048C837.067 173.611 837.035 173.152 836.992 172.672C836.949 172.192 836.901 171.717 836.848 171.248C836.795 170.779 836.741 170.341 836.688 169.936L837.872 169.792C837.936 170.197 837.995 170.64 838.048 171.12C838.112 171.589 838.165 172.069 838.208 172.56C838.261 173.051 838.299 173.515 838.32 173.952L837.088 174.048ZM832.608 169.28L832.56 167.888L837.76 167.568V168.912L832.608 169.28ZM834.48 167.28C834.299 166.971 834.091 166.635 833.856 166.272C833.621 165.899 833.381 165.52 833.136 165.136C832.891 164.752 832.661 164.4 832.448 164.08L833.312 162.688C833.536 163.029 833.765 163.392 834 163.776C834.245 164.149 834.48 164.517 834.704 164.88C834.928 165.243 835.131 165.579 835.312 165.888L834.48 167.28ZM834.832 169.04L833.696 168.24C834.315 167.323 834.896 166.405 835.44 165.488C835.995 164.56 836.517 163.6 837.008 162.608L838.272 163.28C837.749 164.293 837.205 165.275 836.64 166.224C836.085 167.163 835.483 168.101 834.832 169.04ZM837.68 169.568C837.605 169.173 837.515 168.752 837.408 168.304C837.301 167.845 837.189 167.392 837.072 166.944C836.955 166.496 836.837 166.085 836.72 165.712L838.032 165.376C838.149 165.771 838.267 166.197 838.384 166.656C838.501 167.104 838.613 167.557 838.72 168.016C838.827 168.475 838.917 168.907 838.992 169.312L837.68 169.568ZM839.68 175.408V169.168H841.328V173.392H845.328V172.048H841.328V170.72H845.328V169.392H841.12V168H847.008V175.408H845.328V174.768H841.328V175.408H839.68ZM834.624 165.12L833.488 164.288C833.787 163.733 834.059 163.173 834.304 162.608C834.56 162.043 834.805 161.467 835.04 160.88L836.4 161.472C836.133 162.091 835.851 162.704 835.552 163.312C835.253 163.92 834.944 164.523 834.624 165.12ZM838.608 166.672V165.28H841.28V163.6H839.04V162.24H841.28V160.752H842.96V162.24H845.888V163.6H842.96V165.28H847.6V166.672H838.608ZM858.576 174.112C857.605 174.112 856.741 173.984 855.984 173.728C855.237 173.461 854.651 173.099 854.224 172.64C853.808 172.171 853.6 171.637 853.6 171.04C853.6 169.963 854.32 168.859 855.76 167.728L856.96 168.656C856.373 169.115 855.941 169.525 855.664 169.888C855.397 170.24 855.264 170.581 855.264 170.912C855.264 171.253 855.397 171.552 855.664 171.808C855.941 172.053 856.325 172.245 856.816 172.384C857.317 172.523 857.904 172.592 858.576 172.592C859.12 172.592 859.723 172.555 860.384 172.48C861.045 172.395 861.712 172.283 862.384 172.144L862.624 173.632C861.941 173.781 861.253 173.899 860.56 173.984C859.867 174.069 859.205 174.112 858.576 174.112ZM854.336 164.352V162.832H862.528V164.352H854.336ZM850.56 174.864C850.283 173.765 850.08 172.688 849.952 171.632C849.824 170.565 849.76 169.435 849.76 168.24C849.76 167.056 849.824 165.936 849.952 164.88C850.08 163.824 850.283 162.747 850.56 161.648L852.24 161.872C851.984 162.917 851.792 163.957 851.664 164.992C851.547 166.027 851.488 167.109 851.488 168.24C851.488 169.371 851.547 170.459 851.664 171.504C851.792 172.539 851.984 173.568 852.24 174.592L850.56 174.864ZM867.6 175.36C867.056 175.36 866.576 175.243 866.16 175.008C865.755 174.784 865.44 174.469 865.216 174.064C864.992 173.659 864.88 173.184 864.88 172.64C864.88 172.096 864.992 171.621 865.216 171.216C865.44 170.8 865.755 170.48 866.16 170.256C866.576 170.032 867.056 169.92 867.6 169.92C868.144 169.92 868.619 170.032 869.024 170.256C869.429 170.48 869.744 170.8 869.968 171.216C870.203 171.621 870.32 172.096 870.32 172.64C870.32 173.184 870.203 173.659 869.968 174.064C869.744 174.469 869.429 174.784 869.024 175.008C868.619 175.243 868.144 175.36 867.6 175.36ZM867.6 173.968C868.005 173.968 868.325 173.845 868.56 173.6C868.805 173.355 868.928 173.035 868.928 172.64C868.928 172.235 868.805 171.915 868.56 171.68C868.325 171.435 868.005 171.312 867.6 171.312C867.205 171.312 866.885 171.435 866.64 171.68C866.395 171.915 866.272 172.235 866.272 172.64C866.272 173.035 866.395 173.355 866.64 173.6C866.885 173.845 867.205 173.968 867.6 173.968Z" fill="#F58BAB"></path><mask id="mask0_194_706" style="mask-type:alpha" maskUnits="userSpaceOnUse" x="1" y="21" width="1440" height="156"><path d="M17.049 142H1.39176L34.7939 21.961H48.0156L81.5918 142H65.9345L59.1497 114.513H23.8338L17.049 142ZM41.4048 47.3605L28.1831 100.943H54.6265L41.4048 47.3605ZM126.782 142V55.0152H140.873V63.5397C143.483 58.3206 149.224 53.6234 157.922 53.6234C172.014 53.6234 182.626 63.3657 182.626 87.7215V142H168.708V87.8954C168.708 70.3245 162.793 66.4972 155.313 66.4972C145.049 66.4972 140.699 74.6738 140.699 87.7215V142H126.782ZM241.916 121.82L252.18 128.952C247.483 139.216 239.654 143.392 227.302 143.392C207.296 143.392 197.205 128.256 197.205 104.075V92.5926C197.205 67.8889 207.122 53.6234 225.041 53.6234C244.003 53.6234 253.05 65.6273 253.05 92.5926V101.639H211.123V104.075C211.123 119.036 215.298 130.866 227.128 130.866C235.479 130.866 238.436 127.561 241.916 121.82ZM225.041 66.1492C214.428 66.1492 211.123 73.9779 211.123 89.4612H239.132C239.132 71.3683 234.957 66.1492 225.041 66.1492ZM310.568 78.1531L293.519 142H281.863L260.987 55.0152H275.948L288.3 116.079L303.958 55.0152H317.179L333.01 116.6L345.188 55.0152H359.976L339.447 142H327.617L310.568 78.1531ZM446.466 121.82L456.73 128.952C452.033 139.216 444.204 143.392 431.852 143.392C411.846 143.392 401.756 128.256 401.756 104.075V92.5926C401.756 67.8889 411.672 53.6234 429.591 53.6234C448.553 53.6234 457.6 65.6273 457.6 92.5926V101.639H415.673V104.075C415.673 119.036 419.848 130.866 431.678 130.866C440.029 130.866 442.986 127.561 446.466 121.82ZM429.591 66.1492C418.979 66.1492 415.673 73.9779 415.673 89.4612H443.682C443.682 71.3683 439.507 66.1492 429.591 66.1492ZM522.235 65.4534L511.449 73.6299C508.491 68.5848 505.36 66.4972 500.663 66.4972C492.834 66.4972 487.789 73.108 487.789 87.5475V142H473.871V55.0152H487.789V63.5397C490.399 57.9727 495.618 53.6234 503.62 53.6234C511.797 53.6234 517.886 57.6247 522.235 65.4534ZM525.097 116.6C525.097 97.8117 536.405 91.7228 552.237 91.7228H565.98V81.6325C565.98 69.6286 562.501 66.4972 552.585 66.4972C544.234 66.4972 540.929 67.715 537.449 74.8477L526.837 68.0629C531.708 57.9727 539.015 53.6234 552.759 53.6234C570.677 53.6234 579.898 60.7562 579.898 81.6325V142H565.98V133.475C563.371 139.39 559.543 143.392 549.801 143.392C533.796 143.392 525.097 133.475 525.097 116.6ZM565.98 108.598V103.553H553.107C542.842 103.553 539.015 108.25 539.015 116.948C539.015 126.691 544.06 130.518 552.063 130.518C559.543 130.518 565.98 128.082 565.98 108.598ZM688.039 92.5926V104.075C688.039 128.952 677.427 143.392 658.638 143.392C639.849 143.392 629.411 128.952 629.411 104.075V92.5926C629.411 67.715 639.849 53.6234 658.638 53.6234C677.427 53.6234 688.039 67.715 688.039 92.5926ZM658.638 130.866C670.642 130.866 674.121 119.036 674.121 104.075V92.5926C674.121 76.2395 670.642 66.1492 658.638 66.1492C646.634 66.1492 643.329 76.2395 643.329 92.5926V104.075C643.329 119.036 646.634 130.866 658.638 130.866ZM696.627 55.0152H705.5V48.7523C705.5 30.6594 710.371 21.961 727.42 21.961H731.595V35.1826H728.29C720.635 35.1826 719.417 39.5319 719.417 51.1879V55.0152H731.595V67.541H719.417V142H705.5V67.541H696.627V55.0152ZM820.577 63.7137V21.961H834.494V142H820.577V134.345C817.097 140.086 812.226 143.392 802.832 143.392C784.391 143.392 775.519 126.691 775.519 104.075V92.5926C775.519 67.715 786.479 53.6234 802.832 53.6234C812.052 53.6234 817.445 57.7987 820.577 63.7137ZM805.093 130.866C816.575 130.866 820.577 119.036 820.577 104.075V91.3748C820.577 75.7176 814.662 66.1492 805.093 66.1492C794.655 66.1492 789.436 76.0655 789.436 92.5926V104.075C789.436 118.862 794.133 130.866 805.093 130.866ZM907.71 92.5926V104.075C907.71 128.952 897.097 143.392 878.309 143.392C859.52 143.392 849.082 128.952 849.082 104.075V92.5926C849.082 67.715 859.52 53.6234 878.309 53.6234C897.097 53.6234 907.71 67.715 907.71 92.5926ZM878.309 130.866C890.313 130.866 893.792 119.036 893.792 104.075V92.5926C893.792 76.2395 890.313 66.1492 878.309 66.1492C866.305 66.1492 862.999 76.2395 862.999 92.5926V104.075C862.999 119.036 866.305 130.866 878.309 130.866ZM963.966 63.7137V55.0152H977.883V140.26C977.883 164.442 967.793 176.098 947.96 176.098C934.739 176.098 926.91 171.749 922.039 161.659L932.651 154.352C935.783 160.441 939.262 163.572 947.613 163.572C959.616 163.572 963.966 155.222 963.966 140.26V134.345C960.486 140.086 955.615 143.392 946.221 143.392C927.78 143.392 918.908 126.691 918.908 104.075V92.5926C918.908 67.715 929.868 53.6234 946.221 53.6234C955.441 53.6234 960.834 57.7987 963.966 63.7137ZM948.482 130.866C959.964 130.866 963.966 119.036 963.966 104.075V91.3748C963.966 75.7176 958.051 66.1492 948.482 66.1492C938.044 66.1492 932.825 76.0655 932.825 92.5926V104.075C932.825 118.862 937.522 130.866 948.482 130.866ZM1079.14 68.0629L1069.05 75.3696C1065.57 69.2807 1062.44 66.4972 1053.92 66.4972C1046.44 66.4972 1042.09 70.4985 1042.09 78.1531C1042.09 86.3297 1046.61 89.8091 1056 91.8967C1068.53 94.6803 1081.23 99.8993 1081.23 117.818C1081.23 132.954 1072.36 143.392 1054.61 143.392C1040.35 143.392 1032.69 138.347 1027.3 129.3L1037.22 121.298C1040.69 127.561 1045.22 130.518 1053.74 130.518C1062.79 130.518 1067.31 125.995 1067.31 118.166C1067.31 110.511 1064.18 107.032 1051.83 104.249C1040.17 101.639 1028.17 95.2022 1028.17 78.3271C1028.17 63.8876 1037.56 53.6234 1053.39 53.6234C1064.88 53.6234 1073.57 57.2768 1079.14 68.0629ZM1096.53 142V21.961H1110.62V63.5397C1113.23 58.3206 1118.97 53.6234 1127.67 53.6234C1141.76 53.6234 1152.37 63.3657 1152.37 87.7215V142H1138.45V87.8954C1138.45 70.3245 1132.54 66.4972 1125.06 66.4972C1114.79 66.4972 1110.44 74.6738 1110.44 87.7215V142H1096.53ZM1211.66 121.82L1221.92 128.952C1217.23 139.216 1209.4 143.392 1197.05 143.392C1177.04 143.392 1166.95 128.256 1166.95 104.075V92.5926C1166.95 67.8889 1176.87 53.6234 1194.79 53.6234C1213.75 53.6234 1222.79 65.6273 1222.79 92.5926V101.639H1180.87V104.075C1180.87 119.036 1185.04 130.866 1196.87 130.866C1205.22 130.866 1208.18 127.561 1211.66 121.82ZM1194.79 66.1492C1184.17 66.1492 1180.87 73.9779 1180.87 89.4612H1208.88C1208.88 71.3683 1204.7 66.1492 1194.79 66.1492ZM1239.07 115.209V21.961H1252.98V111.729C1252.98 121.124 1252.64 129.126 1263.77 129.126V142C1244.98 142 1239.07 133.302 1239.07 115.209ZM1272.56 67.541V55.0152H1281.43V35.8785H1295.35V55.0152H1309.79V67.541H1295.35V111.729C1295.35 123.733 1295.87 128.778 1304.75 128.778H1309.79V142H1303.7C1286.48 142 1281.43 133.302 1281.43 115.209V67.541H1272.56ZM1364.9 121.82L1375.17 128.952C1370.47 139.216 1362.64 143.392 1350.29 143.392C1330.28 143.392 1320.19 128.256 1320.19 104.075V92.5926C1320.19 67.8889 1330.11 53.6234 1348.03 53.6234C1366.99 53.6234 1376.04 65.6273 1376.04 92.5926V101.639H1334.11V104.075C1334.11 119.036 1338.29 130.866 1350.12 130.866C1358.47 130.866 1361.42 127.561 1364.9 121.82ZM1348.03 66.1492C1337.42 66.1492 1334.11 73.9779 1334.11 89.4612H1362.12C1362.12 71.3683 1357.94 66.1492 1348.03 66.1492ZM1440.67 65.4534L1429.89 73.6299C1426.93 68.5848 1423.8 66.4972 1419.1 66.4972C1411.27 66.4972 1406.23 73.108 1406.23 87.5475V142H1392.31V55.0152H1406.23V63.5397C1408.84 57.9727 1414.05 53.6234 1422.06 53.6234C1430.23 53.6234 1436.32 57.6247 1440.67 65.4534Z" fill="#F58BAB"></path></mask><g mask="url(#mask0_194_706)"><rect y="151" width="1440" height="33" fill="#F58BAB"></rect></g></svg>