<svg xmlns="http://www.w3.org/2000/svg" width="305" height="95" viewBox="0 0 305 95" fill="none"><rect x="5" y="5" width="300" height="90" fill="#F58BAB"></rect><rect x="1" y="1" width="298" height="88" fill="white" stroke="#F58BAB" stroke-width="2"></rect><path d="M27.78 44.84V35.72H23.76V34.14H27.78V30.04H19.96V28.16H27.78V26.56H30.22V28.16H38.04V30.04H30.22V34.14H34.24V32.84H23.76V38.78H21.5V31.12H36.5V38.78H23.76V37.08H34.24V35.72H30.22V44.84H27.78ZM20.54 44.56L19.58 42.56C21.4333 41.88 23.04 41.1533 24.4 40.38C25.7733 39.6067 26.9067 38.8 27.8 37.96L29 39.28C28.08 40.2267 26.9133 41.1467 25.5 42.04C24.1 42.9333 22.4467 43.7733 20.54 44.56ZM37.46 44.56C35.5667 43.7733 33.9133 42.9333 32.5 42.04C31.0867 41.1467 29.92 40.2267 29 39.28L30.2 37.96C31.1067 38.8 32.24 39.6067 33.6 40.38C34.9733 41.1533 36.58 41.88 38.42 42.56L37.46 44.56ZM49.46 44.66C49.1667 44.66 48.8 44.6533 48.36 44.64C47.92 44.6267 47.34 44.6 46.62 44.56L46.52 42.5C47.1867 42.54 47.7133 42.5733 48.1 42.6C48.5 42.6133 48.82 42.62 49.06 42.62C49.3667 42.62 49.58 42.6067 49.7 42.58C49.8333 42.54 49.9133 42.4533 49.94 42.32C49.9667 42.1733 49.98 41.94 49.98 41.62V37.9H46.32V36.1H55.68V32.98H46.32V37.9H43.9V31.24H58.1V37.9H52.42V41.58C52.42 42.2867 52.3867 42.8467 52.32 43.26C52.2667 43.6733 52.14 43.98 51.94 44.18C51.7533 44.38 51.46 44.5067 51.06 44.56C50.66 44.6267 50.1267 44.66 49.46 44.66ZM43.2 44.24L41.8 42.58C42.7333 41.9533 43.6 41.2667 44.4 40.52C45.2133 39.76 45.9333 38.9733 46.56 38.16L48.2 39.52C47.56 40.4 46.8133 41.24 45.96 42.04C45.1067 42.84 44.1867 43.5733 43.2 44.24ZM58.66 44.34C57.8867 43.5133 57.08 42.72 56.24 41.96C55.4133 41.2 54.5533 40.48 53.66 39.8L55.14 38.16C56.06 38.8533 56.94 39.5867 57.78 40.36C58.6333 41.12 59.4467 41.9267 60.22 42.78L58.66 44.34ZM41.96 30.1V28.16H49.78V26.56H52.22V28.16H60.04V30.1H41.96ZM67.24 41.74C69.1333 41.6867 70.7333 41.5133 72.04 41.22C73.3467 40.9133 74.3933 40.4533 75.18 39.84C75.9667 39.2133 76.5267 38.4 76.86 37.4C77.2067 36.4 77.38 35.18 77.38 33.74V27.56H79.94V33.68C79.94 35.48 79.7133 37.0267 79.26 38.32C78.8067 39.6 78.08 40.6467 77.08 41.46C76.0933 42.2733 74.8133 42.88 73.24 43.28C71.6667 43.6933 69.7667 43.9133 67.54 43.94L67.24 41.74ZM66.16 36.8V27.56H68.7V36.8H66.16ZM100.18 44.06V42.66H87.06V40.52H100.18V30.48H87.06V28.34H102.66V44.06H100.18ZM109.82 41.38C111.807 41.18 113.567 40.8133 115.1 40.28C116.647 39.7467 117.967 39.0267 119.06 38.12C120.167 37.2 121.08 36.0867 121.8 34.78C122.52 33.4733 123.053 31.9467 123.4 30.2L125.66 30.7C125.193 33.34 124.307 35.58 123 37.42C121.707 39.26 119.993 40.7 117.86 41.74C115.74 42.78 113.18 43.4333 110.18 43.7L109.82 41.38ZM115.78 33.32C114.713 32.6667 113.62 32.0667 112.5 31.52C111.393 30.9733 110.28 30.4733 109.16 30.02L110.26 27.9C112.54 28.78 114.787 29.88 117 31.2L115.78 33.32ZM132.18 42.18C134.207 41.9533 135.72 41.36 136.72 40.4C137.733 39.4267 138.24 38.0933 138.24 36.4V35.9H129.96V33.76H147.64V35.9H140.72V36.4C140.72 37.9333 140.407 39.2733 139.78 40.42C139.167 41.5533 138.267 42.4533 137.08 43.12C135.893 43.7867 134.447 44.1933 132.74 44.34L132.18 42.18ZM131.88 30.22V28.06H144.12V30.22H131.88ZM144.3 31.84C143.967 31.1067 143.633 30.4533 143.3 29.88C142.967 29.2933 142.593 28.7133 142.18 28.14L143.86 27.18C144.287 27.7667 144.667 28.3733 145 29C145.347 29.6133 145.687 30.28 146.02 31L144.3 31.84ZM147.18 30.76C146.873 30.0267 146.553 29.3667 146.22 28.78C145.9 28.18 145.54 27.6067 145.14 27.06L146.8 26.16C147.227 26.76 147.607 27.3733 147.94 28C148.273 28.6133 148.593 29.28 148.9 30L147.18 30.76ZM154.06 36.78C155.167 36.62 156.307 36.3467 157.48 35.96C158.653 35.56 159.807 35.0667 160.94 34.48C162.087 33.8933 163.153 33.2533 164.14 32.56C165.127 31.8533 165.967 31.12 166.66 30.36L168.1 32C167.327 32.8133 166.407 33.6 165.34 34.36C164.273 35.1067 163.12 35.7933 161.88 36.42C160.653 37.0333 159.4 37.56 158.12 38C156.84 38.4267 155.607 38.7333 154.42 38.92L154.06 36.78ZM160.58 44.3V35.12H162.98V44.3H160.58ZM175.8 41.36C177.96 41.2933 179.84 41.0333 181.44 40.58C183.053 40.1267 184.413 39.4533 185.52 38.56C186.64 37.6533 187.527 36.52 188.18 35.16C188.847 33.7867 189.307 32.16 189.56 30.28L191.86 30.66C191.473 33.5133 190.653 35.8867 189.4 37.78C188.16 39.66 186.447 41.08 184.26 42.04C182.073 42.9867 179.373 43.52 176.16 43.64L175.8 41.36ZM181.86 35.8C180.593 35.4933 179.42 35.2467 178.34 35.06C177.26 34.86 176.14 34.6867 174.98 34.54L175.46 32.46C176.633 32.6067 177.76 32.78 178.84 32.98C179.92 33.1667 181.093 33.4133 182.36 33.72L181.86 35.8ZM183 31C181.72 30.7067 180.52 30.46 179.4 30.26C178.293 30.06 177.127 29.8867 175.9 29.74L176.38 27.66C177.62 27.8067 178.8 27.98 179.92 28.18C181.04 28.3667 182.233 28.6133 183.5 28.92L183 31ZM208.78 43.94V42.82H198.64V40.74H208.78V38H199.28V35.98H208.78V33.58H198.64V31.5H211.14V43.94H208.78ZM218.76 42.86V40.54H235.24V42.86H218.76ZM219.76 31.04V28.74H234.24V31.04H219.76ZM241.82 41.38C243.807 41.18 245.567 40.8133 247.1 40.28C248.647 39.7467 249.967 39.0267 251.06 38.12C252.167 37.2 253.08 36.0867 253.8 34.78C254.52 33.4733 255.053 31.9467 255.4 30.2L257.66 30.7C257.193 33.34 256.307 35.58 255 37.42C253.707 39.26 251.993 40.7 249.86 41.74C247.74 42.78 245.18 43.4333 242.18 43.7L241.82 41.38ZM247.78 33.32C246.713 32.6667 245.62 32.0667 244.5 31.52C243.393 30.9733 242.28 30.4733 241.16 30.02L242.26 27.9C244.54 28.78 246.787 29.88 249 31.2L247.78 33.32ZM264.3 41.92C266.113 41.7333 267.76 41.32 269.24 40.68C270.733 40.0267 272.02 39.1867 273.1 38.16C274.18 37.1333 275.013 35.96 275.6 34.64C276.187 33.3067 276.48 31.8733 276.48 30.34L277.5 31.48H267.76V29.34H278.94V30.34C278.94 31.82 278.72 33.2133 278.28 34.52C277.853 35.8267 277.233 37.0267 276.42 38.12C275.607 39.2133 274.627 40.18 273.48 41.02C272.347 41.8467 271.067 42.52 269.64 43.04C268.227 43.5733 266.687 43.92 265.02 44.08L264.3 41.92ZM261.6 35.18C262.587 34.4733 263.507 33.6733 264.36 32.78C265.213 31.8867 265.967 30.94 266.62 29.94C267.273 28.94 267.787 27.94 268.16 26.94L270.56 27.34C270.16 28.58 269.613 29.7667 268.92 30.9C268.227 32.02 267.393 33.08 266.42 34.08C265.46 35.0667 264.367 35.98 263.14 36.82L261.6 35.18ZM275.78 30.8C275.42 30.0667 275.073 29.42 274.74 28.86C274.407 28.2867 274.027 27.7333 273.6 27.2L275.2 26.18C275.653 26.7533 276.06 27.34 276.42 27.94C276.78 28.54 277.127 29.1933 277.46 29.9L275.78 30.8ZM278.84 30.48C278.52 29.7333 278.193 29.0733 277.86 28.5C277.54 27.9267 277.193 27.36 276.82 26.8L278.42 25.9C278.847 26.4867 279.227 27.0867 279.56 27.7C279.893 28.3133 280.213 28.9867 280.52 29.72L278.84 30.48ZM61.7 69.54C60.7133 69.54 59.9 69.4667 59.26 69.32C58.62 69.1733 58.1133 68.92 57.74 68.56C57.38 68.2 57.1267 67.7133 56.98 67.1C56.8333 66.4733 56.76 65.6867 56.76 64.74V53.22H59.12V64.26C59.12 64.9667 59.1533 65.5333 59.22 65.96C59.3 66.3733 59.44 66.68 59.64 66.88C59.8533 67.08 60.1667 67.2133 60.58 67.28C61.0067 67.3467 61.5733 67.38 62.28 67.38C63.1733 67.38 64.0533 67.3667 64.92 67.34C65.8 67.3 66.6733 67.24 67.54 67.16C68.4067 67.08 69.2733 66.9867 70.14 66.88L70.26 69.02C69.3133 69.1267 68.36 69.22 67.4 69.3C66.44 69.38 65.4867 69.44 64.54 69.48C63.5933 69.52 62.6467 69.54 61.7 69.54ZM52.58 60.28L52.26 58.08L70.36 55.32L70.7 57.52L52.58 60.28ZM63.56 62.84C64.3733 62.32 65.1 61.7467 65.74 61.12C66.3933 60.4933 66.9533 59.82 67.42 59.1C67.8867 58.3667 68.2467 57.6 68.5 56.8L70.7 57.52C70.46 58.4 70.0733 59.2733 69.54 60.14C69.0067 61.0067 68.36 61.82 67.6 62.58C66.8533 63.34 66.02 64.0133 65.1 64.6L63.56 62.84ZM76.82 67.38C78.8067 67.18 80.5667 66.8133 82.1 66.28C83.6467 65.7467 84.9667 65.0267 86.06 64.12C87.1667 63.2 88.08 62.0867 88.8 60.78C89.52 59.4733 90.0533 57.9467 90.4 56.2L92.66 56.7C92.1933 59.34 91.3067 61.58 90 63.42C88.7067 65.26 86.9933 66.7 84.86 67.74C82.74 68.78 80.18 69.4333 77.18 69.7L76.82 67.38ZM82.78 59.32C81.7133 58.6667 80.62 58.0667 79.5 57.52C78.3933 56.9733 77.28 56.4733 76.16 56.02L77.26 53.9C79.54 54.78 81.7867 55.88 84 57.2L82.78 59.32ZM99.4 67.92C100.853 67.7733 102.2 67.4667 103.44 67C104.693 66.5333 105.82 65.94 106.82 65.22C107.833 64.4867 108.693 63.6467 109.4 62.7C110.107 61.7533 110.647 60.7133 111.02 59.58C111.393 58.4467 111.58 57.2467 111.58 55.98L112.6 57.12H102.86V54.96H114.04V55.98C114.04 57.5 113.82 58.9333 113.38 60.28C112.953 61.6133 112.333 62.84 111.52 63.96C110.707 65.08 109.727 66.0667 108.58 66.92C107.447 67.7733 106.167 68.4667 104.74 69C103.327 69.5467 101.787 69.9067 100.12 70.08L99.4 67.92ZM96.7 60.86C97.6867 60.1533 98.6067 59.3533 99.46 58.46C100.313 57.5533 101.067 56.5933 101.72 55.58C102.373 54.5667 102.887 53.5533 103.26 52.54L105.66 52.94C105.26 54.18 104.713 55.3733 104.02 56.52C103.327 57.6533 102.493 58.7267 101.52 59.74C100.56 60.74 99.4667 61.6667 98.24 62.52L96.7 60.86ZM109.22 65.56C108.033 64.6 106.887 63.72 105.78 62.92C104.673 62.1067 103.587 61.3733 102.52 60.72L103.96 58.86C105.173 59.62 106.34 60.4067 107.46 61.22C108.58 62.0333 109.647 62.8667 110.66 63.72L109.22 65.56ZM119.76 62.98V60.6H136.24V62.98H119.76ZM153.04 69.94C151.427 69.94 150.02 69.6533 148.82 69.08C147.633 68.52 146.713 67.7267 146.06 66.7C145.407 65.66 145.08 64.44 145.08 63.04C145.08 61.9467 145.273 60.9333 145.66 60C146.06 59.0667 146.62 58.2533 147.34 57.56C148.073 56.8533 148.94 56.3133 149.94 55.94L150.14 56.56L140.62 56.78V54.64L157.48 54.24V56.38L154.94 56.44C153.873 56.4667 152.887 56.64 151.98 56.96C151.087 57.2667 150.313 57.7 149.66 58.26C149.02 58.82 148.52 59.4867 148.16 60.26C147.8 61.02 147.62 61.8667 147.62 62.8C147.62 63.8133 147.84 64.6933 148.28 65.44C148.72 66.1733 149.34 66.74 150.14 67.14C150.953 67.54 151.927 67.74 153.06 67.74C153.3 67.74 153.567 67.7333 153.86 67.72C154.167 67.6933 154.473 67.6667 154.78 67.64C155.1 67.6 155.38 67.56 155.62 67.52L155.88 69.72C155.6 69.76 155.293 69.7933 154.96 69.82C154.627 69.86 154.293 69.8867 153.96 69.9C153.627 69.9267 153.32 69.94 153.04 69.94ZM155.08 63.7C154.773 63.02 154.44 62.3733 154.08 61.76C153.733 61.1333 153.333 60.4933 152.88 59.84L154.62 58.88C155.073 59.5333 155.48 60.18 155.84 60.82C156.2 61.4467 156.54 62.1133 156.86 62.82L155.08 63.7ZM158.12 62.56C157.827 61.8667 157.507 61.2133 157.16 60.6C156.827 59.9733 156.44 59.3333 156 58.68L157.74 57.76C158.18 58.4267 158.573 59.08 158.92 59.72C159.28 60.36 159.607 61.04 159.9 61.76L158.12 62.56ZM169.58 69.62V67.5H166.72V65.8H169.58V64.96H168.68V63.38H172.84V62.48H168.68V61.28H172.84V60.38H171.82V63.38H169.7V60.38H168.68V64.96H166.82V58.82H169.58V57.96H166.72V56.26H169.58V54.44H171.88V56.26H174.74V57.96H171.88V58.82H174.64V64.96H171.88V65.8H174.46V67.5H171.88V69.62H169.58ZM163.78 70.84V57.96H165.96V70.84H163.78ZM166.6 70.6L166.46 68.68C167.3 68.64 168.193 68.58 169.14 68.5C170.087 68.42 171.027 68.34 171.96 68.26C172.907 68.1667 173.773 68.0667 174.56 67.96L174.72 69.74C173.893 69.8733 173.013 69.9933 172.08 70.1C171.147 70.2067 170.213 70.3 169.28 70.38C168.347 70.46 167.453 70.5333 166.6 70.6ZM162.94 64L162.16 61.34C162.64 60.5267 163.06 59.68 163.42 58.8C163.793 57.92 164.113 56.98 164.38 55.98C164.647 54.9667 164.873 53.8733 165.06 52.7L167.12 52.82C166.947 54.3133 166.7 55.7133 166.38 57.02C166.073 58.3133 165.7 59.4733 165.26 60.5L165.2 59.1C165.093 59.5 164.953 59.9267 164.78 60.38C164.607 60.82 164.413 61.26 164.2 61.7C164 62.14 163.787 62.56 163.56 62.96C163.347 63.36 163.14 63.7067 162.94 64ZM175.42 70.76L173.62 69.56C173.927 68.9733 174.207 68.3533 174.46 67.7C174.713 67.0333 174.927 66.2733 175.1 65.42C175.287 64.5533 175.433 63.54 175.54 62.38C175.66 61.22 175.747 59.8533 175.8 58.28C175.867 56.7067 175.9 54.8533 175.9 52.72H178.02C178.02 54.8933 177.987 56.8067 177.92 58.46C177.853 60.1133 177.753 61.5667 177.62 62.82C177.487 64.06 177.313 65.1533 177.1 66.1C176.9 67.0333 176.66 67.88 176.38 68.64C176.1 69.3867 175.78 70.0933 175.42 70.76ZM179.32 70.42C179.173 70.42 178.967 70.4067 178.7 70.38C178.433 70.3667 178.14 70.34 177.82 70.3C177.513 70.2733 177.22 70.24 176.94 70.2L176.92 68.1C177.293 68.18 177.587 68.2333 177.8 68.26C178.027 68.2733 178.213 68.28 178.36 68.28C178.453 68.28 178.533 68.2333 178.6 68.14C178.667 68.0333 178.727 67.82 178.78 67.5C178.833 67.18 178.88 66.7067 178.92 66.08C178.973 65.4533 179.007 64.6267 179.02 63.6C179.047 62.5733 179.06 61.28 179.06 59.72V58.72H174.4V56.72H181.22V58.14C181.22 60.1267 181.207 61.8133 181.18 63.2C181.167 64.5867 181.133 65.7267 181.08 66.62C181.027 67.5133 180.953 68.22 180.86 68.74C180.78 69.26 180.667 69.6333 180.52 69.86C180.387 70.1 180.22 70.2533 180.02 70.32C179.82 70.3867 179.587 70.42 179.32 70.42ZM167.4 55.54L167.16 53.68C167.747 53.6533 168.36 53.6133 169 53.56C169.64 53.4933 170.28 53.42 170.92 53.34C171.573 53.26 172.193 53.18 172.78 53.1C173.367 53.0067 173.893 52.9067 174.36 52.8L174.74 54.68C174.073 54.8133 173.32 54.94 172.48 55.06C171.653 55.18 170.8 55.28 169.92 55.36C169.053 55.44 168.213 55.5 167.4 55.54ZM198.7 70.94C197.753 70.2333 196.887 69.6067 196.1 69.06C195.313 68.5267 194.573 68.0333 193.88 67.58C193.187 67.1267 192.507 66.7 191.84 66.3C191.173 65.8867 190.48 65.46 189.76 65.02C189.013 64.5667 188.413 64.1933 187.96 63.9C187.52 63.5933 187.173 63.3267 186.92 63.1C186.68 62.8733 186.513 62.6467 186.42 62.42C186.34 62.18 186.3 61.9067 186.3 61.6C186.3 61.28 186.347 61 186.44 60.76C186.547 60.5067 186.727 60.2667 186.98 60.04C187.233 59.8 187.593 59.5333 188.06 59.24C188.527 58.9467 189.127 58.5933 189.86 58.18C190.62 57.7533 191.453 57.2733 192.36 56.74C193.267 56.2067 194.213 55.6333 195.2 55.02C196.187 54.4067 197.167 53.7533 198.14 53.06L199.54 55C198.953 55.4 198.333 55.8067 197.68 56.22C197.027 56.62 196.38 57.0133 195.74 57.4C195.1 57.7733 194.487 58.1267 193.9 58.46C193.327 58.78 192.807 59.0733 192.34 59.34C191.873 59.5933 191.493 59.8 191.2 59.96C190.627 60.28 190.18 60.5333 189.86 60.72C189.553 60.9067 189.333 61.0667 189.2 61.2C189.08 61.32 189.02 61.4533 189.02 61.6C189.02 61.7467 189.06 61.8733 189.14 61.98C189.233 62.0867 189.42 62.2267 189.7 62.4C189.98 62.5733 190.407 62.8267 190.98 63.16C191.3 63.3333 191.707 63.5667 192.2 63.86C192.707 64.1533 193.28 64.4933 193.92 64.88C194.56 65.2533 195.227 65.6667 195.92 66.12C196.627 66.56 197.34 67.0267 198.06 67.52C198.793 68 199.5 68.4867 200.18 68.98L198.7 70.94ZM221.12 70.52C220.253 70.52 219.553 70.4867 219.02 70.42C218.487 70.3667 218.087 70.2533 217.82 70.08C217.567 69.92 217.393 69.6733 217.3 69.34C217.207 69.0067 217.16 68.5667 217.16 68.02V62.28H207.12V60.22H215.08V57.02H210.4V55.02H215.08V52.68H217.52V55.02H223.66V57.02H217.52V60.22H224.88V62.28H219.56V67.54C219.56 67.7533 219.567 67.92 219.58 68.04C219.607 68.16 219.667 68.2533 219.76 68.32C219.867 68.3867 220.033 68.4333 220.26 68.46C220.487 68.4733 220.807 68.48 221.22 68.48C221.62 68.48 221.927 68.46 222.14 68.42C222.367 68.3667 222.533 68.24 222.64 68.04C222.747 67.8267 222.827 67.4867 222.88 67.02C222.933 66.54 222.987 65.8733 223.04 65.02L225.16 65.2C225.107 66.2 225.04 67.0267 224.96 67.68C224.893 68.3333 224.78 68.8533 224.62 69.24C224.473 69.6267 224.26 69.9067 223.98 70.08C223.7 70.2667 223.327 70.3867 222.86 70.44C222.407 70.4933 221.827 70.52 221.12 70.52ZM207.84 70.78L206.88 68.72C208.107 68.3867 209.153 67.8933 210.02 67.24C210.9 66.5867 211.587 65.7933 212.08 64.86C212.587 63.9267 212.867 62.8933 212.92 61.76L215.2 62.12C215 64.3733 214.28 66.2267 213.04 67.68C211.813 69.12 210.08 70.1533 207.84 70.78ZM209.72 59.94L207.64 58.88C208.253 57.9733 208.793 57.0067 209.26 55.98C209.74 54.94 210.127 53.8667 210.42 52.76L212.58 53.26C212.3 54.42 211.913 55.5733 211.42 56.72C210.94 57.8667 210.373 58.94 209.72 59.94ZM236.78 71.14V69.8H228.88V68.16H236.78V62.14H229.08V60.56H236.78V59.54H239.22V60.56H246.92V62.14H239.22V68.16H247.12V69.8H239.22V71.14H236.78ZM230.5 67.6V62.7H245.5V67.6H232.76V66.32H243.24V65.7H232.76V64.6H243.24V63.98H232.76V67.6H230.5ZM228.9 59.8L228.74 58.2C229.847 58.1467 231.013 58.0667 232.24 57.96C233.467 57.8533 234.667 57.74 235.84 57.62L235.94 59.14C235.153 59.22 234.347 59.3 233.52 59.38C232.707 59.46 231.907 59.54 231.12 59.62C230.347 59.6867 229.607 59.7467 228.9 59.8ZM229.44 57.34V55.94H235.38V57.34H229.44ZM234.98 60.86L232.7 59.74C233.273 59.42 233.72 59.1 234.04 58.78C234.373 58.46 234.607 58.1067 234.74 57.72C234.887 57.32 234.96 56.84 234.96 56.28V55.26H229.16V53.64H234.96V52.66H237.34V55.36C237.34 56.12 237.307 56.7667 237.24 57.3C237.187 57.82 237.073 58.28 236.9 58.68C236.727 59.08 236.487 59.4467 236.18 59.78C235.873 60.1133 235.473 60.4733 234.98 60.86ZM238.56 60.14V52.66H241.02V53.64H246.84V55.26H241.02V55.94H246.56V57.34H241.02V57.98H247.14V59.5H241.02V60.14H238.56Z" fill="#F58BAB"></path></svg>