<svg xmlns="http://www.w3.org/2000/svg" width="334" height="75" viewBox="0 0 334 75" fill="none"><rect x="4" y="5" width="330" height="70" fill="#F58BAB"></rect><rect x="1" y="1" width="328" height="68" fill="white" stroke="#F58BAB" stroke-width="2"></rect><path d="M72.2 49.8V47.04H83.6V40.26H74.9V37.56H83.6V31.95H72.8V29.16H97.7V31.95H86.9V37.56H95.6V40.26H86.9V47.04H98.3V49.8H72.2ZM90.53 28.77C88.65 28.11 86.76 27.54 84.86 27.06C82.96 26.56 80.94 26.15 78.8 25.83L79.79 23.1C81.75 23.38 83.68 23.76 85.58 24.24C87.5 24.7 89.53 25.3 91.67 26.04L90.53 28.77ZM116.6 49.59C114.4 49.59 112.69 49.09 111.47 48.09C110.25 47.09 109.64 45.71 109.64 43.95C109.64 42.15 110.27 40.76 111.53 39.78C112.79 38.8 114.58 38.31 116.9 38.31C117.88 38.31 118.85 38.45 119.81 38.73C120.77 39.01 121.76 39.46 122.78 40.08C123.82 40.68 124.93 41.47 126.11 42.45C127.31 43.41 128.62 44.59 130.04 45.99L128.15 48.12C126.53 46.58 125.17 45.33 124.07 44.37C122.97 43.41 122.02 42.68 121.22 42.18C120.42 41.66 119.69 41.31 119.03 41.13C118.37 40.95 117.66 40.86 116.9 40.86C115.44 40.86 114.36 41.11 113.66 41.61C112.98 42.09 112.64 42.84 112.64 43.86C112.64 44.88 112.97 45.65 113.63 46.17C114.31 46.69 115.3 46.95 116.6 46.95C118.04 46.95 119.12 46.64 119.84 46.02C120.58 45.4 120.95 44.51 120.95 43.35V27.96C122.69 27.96 124.3 27.99 125.78 28.05C127.26 28.09 128.71 28.16 130.13 28.26L129.95 31.05C128.67 30.95 127.34 30.88 125.96 30.84C124.58 30.78 123.09 30.75 121.49 30.75L124.04 28.77V43.05C124.04 45.19 123.41 46.82 122.15 47.94C120.89 49.04 119.04 49.59 116.6 49.59ZM103.19 44.85C104.11 42.45 104.95 40.1 105.71 37.8C106.47 35.48 107.17 33.15 107.81 30.81C108.47 28.45 109.08 26.04 109.64 23.58L112.64 23.88C112.08 26.4 111.47 28.87 110.81 31.29C110.15 33.71 109.43 36.12 108.65 38.52C107.89 40.9 107.04 43.3 106.1 45.72L103.19 44.85ZM102.95 30.75V27.96H117.95V30.75H102.95ZM146.6 50.7V44.04H135.5V41.55H146.6V39.9H136.85V37.56H146.6V35.94H135.8V33.54H160.7V35.94H149.9V37.56H159.65V39.9H149.9V41.55H161V44.04H149.9V50.7H146.6ZM135.62 50.31L134.24 47.79C137.04 47.05 139.45 46.28 141.47 45.48C143.51 44.66 145.19 43.81 146.51 42.93L148.34 44.34C146.92 45.46 145.15 46.52 143.03 47.52C140.91 48.52 138.44 49.45 135.62 50.31ZM160.88 50.31C158.06 49.45 155.59 48.52 153.47 47.52C151.35 46.52 149.58 45.46 148.16 44.34L149.99 42.93C151.31 43.81 152.98 44.66 155 45.48C157.04 46.3 159.46 47.07 162.26 47.79L160.88 50.31ZM142.64 35.07C142.3 34.05 141.92 33.03 141.5 32.01C141.08 30.99 140.64 29.99 140.18 29.01L143.27 28.65C143.73 29.63 144.17 30.64 144.59 31.68C145.03 32.7 145.42 33.72 145.76 34.74L142.64 35.07ZM139.73 29.55C139.33 28.73 138.91 27.93 138.47 27.15C138.03 26.37 137.58 25.63 137.12 24.93L139.73 23.82C140.19 24.52 140.65 25.27 141.11 26.07C141.57 26.87 141.99 27.68 142.37 28.5L139.73 29.55ZM153.56 35.19L150.44 34.71C150.84 34.05 151.2 33.41 151.52 32.79C151.86 32.17 152.16 31.53 152.42 30.87C152.7 30.19 152.96 29.46 153.2 28.68L156.35 29.01C156.01 30.09 155.6 31.16 155.12 32.22C154.66 33.26 154.14 34.25 153.56 35.19ZM135.2 30.06V27.54H143.99V23.46H146.9V27.54H149.6V23.46H152.51V27.54H161.3V30.06H135.2ZM156.77 29.4L154.13 28.5C154.63 27.74 155.1 26.96 155.54 26.16C156 25.36 156.4 24.59 156.74 23.85L159.41 24.75C159.05 25.49 158.65 26.26 158.21 27.06C157.77 27.86 157.29 28.64 156.77 29.4ZM171.44 50.4C171.14 50.4 170.7 50.38 170.12 50.34C169.56 50.32 168.89 50.29 168.11 50.25L167.93 47.55C168.55 47.59 169.06 47.63 169.46 47.67C169.88 47.69 170.19 47.7 170.39 47.7C170.67 47.7 170.87 47.68 170.99 47.64C171.11 47.58 171.18 47.43 171.2 47.19C171.22 46.93 171.23 46.52 171.23 45.96V36.24H166.19V33.45H179.09V36.24H174.23V45.9C174.23 46.92 174.19 47.73 174.11 48.33C174.05 48.95 173.92 49.4 173.72 49.68C173.54 49.98 173.26 50.17 172.88 50.25C172.52 50.35 172.04 50.4 171.44 50.4ZM167.18 46.98L165.68 44.07C167.04 42.59 168.27 40.9 169.37 39C170.49 37.1 171.43 35.08 172.19 32.94L174.05 34.41C173.23 36.91 172.23 39.22 171.05 41.34C169.89 43.46 168.6 45.34 167.18 46.98ZM176.81 50.61L175.19 48.24C176.63 47.66 177.85 47.03 178.85 46.35C179.85 45.67 180.67 44.89 181.31 44.01C181.95 43.13 182.42 42.1 182.72 40.92C183.04 39.74 183.23 38.37 183.29 36.81L186.5 36.84C186.42 39.18 185.98 41.26 185.18 43.08C184.38 44.88 183.27 46.41 181.85 47.67C180.43 48.93 178.75 49.91 176.81 50.61ZM176.12 42.24L173.75 40.86C174.33 39.98 174.85 39.08 175.31 38.16C175.79 37.24 176.22 36.25 176.6 35.19L179.09 36.24C178.71 37.32 178.26 38.36 177.74 39.36C177.24 40.34 176.7 41.3 176.12 42.24ZM188.51 50.16C188.23 50.16 187.72 50.14 186.98 50.1C186.24 50.08 185.4 50.03 184.46 49.95L184.34 47.25C185.1 47.33 185.77 47.39 186.35 47.43C186.93 47.45 187.35 47.46 187.61 47.46C187.95 47.46 188.23 47.4 188.45 47.28C188.69 47.16 188.87 46.92 188.99 46.56C189.13 46.18 189.23 45.62 189.29 44.88C189.37 44.14 189.41 43.16 189.41 41.94H177.95V39.24H192.59C192.59 41.24 192.55 42.9 192.47 44.22C192.39 45.54 192.26 46.6 192.08 47.4C191.9 48.18 191.65 48.77 191.33 49.17C191.03 49.57 190.64 49.83 190.16 49.95C189.7 50.09 189.15 50.16 188.51 50.16ZM173.54 36.12C172.5 34.92 171.47 33.75 170.45 32.61C169.43 31.47 168.44 30.44 167.48 29.52L169.34 27.72C170.3 28.64 171.29 29.66 172.31 30.78C173.35 31.88 174.39 33.04 175.43 34.26L173.54 36.12ZM173.09 33.93L171.11 31.98C172.15 30.96 173.09 29.95 173.93 28.95C174.79 27.95 175.6 26.89 176.36 25.77L178.7 27.24C177.94 28.38 177.08 29.52 176.12 30.66C175.18 31.78 174.17 32.87 173.09 33.93ZM166.79 27.24V24.6H178.7V27.24H166.79ZM179.06 33.03L176.81 31.38C177.83 30.2 178.74 28.91 179.54 27.51C180.36 26.09 181.01 24.65 181.49 23.19L184.28 23.58C183.98 24.68 183.56 25.81 183.02 26.97C182.48 28.11 181.87 29.21 181.19 30.27C180.51 31.31 179.8 32.23 179.06 33.03ZM179.66 38.31L178.73 35.7C180.27 35.26 181.63 34.76 182.81 34.2C183.99 33.62 185.01 32.98 185.87 32.28C186.73 31.56 187.45 30.76 188.03 29.88C188.63 28.98 189.1 28 189.44 26.94L192.35 27.27C191.91 28.69 191.33 29.97 190.61 31.11C189.89 32.25 189.01 33.27 187.97 34.17C186.95 35.07 185.75 35.86 184.37 36.54C183.01 37.22 181.44 37.81 179.66 38.31ZM192.83 38.31C190.75 37.71 188.93 36.96 187.37 36.06C185.83 35.14 184.49 34.04 183.35 32.76C182.23 31.48 181.26 30 180.44 28.32L182.9 26.79C183.32 27.83 183.84 28.79 184.46 29.67C185.08 30.55 185.83 31.35 186.71 32.07C187.59 32.79 188.61 33.44 189.77 34.02C190.95 34.58 192.3 35.09 193.82 35.55L192.83 38.31ZM181.79 27.96V25.35H193.49V27.96H181.79ZM198.71 50.04V26.46H223.79V45.6C223.79 46.58 223.74 47.37 223.64 47.97C223.56 48.55 223.38 48.98 223.1 49.26C222.82 49.54 222.39 49.72 221.81 49.8C221.23 49.9 220.46 49.95 219.5 49.95C219.12 49.95 218.55 49.93 217.79 49.89C217.03 49.87 216 49.84 214.7 49.8L214.55 47.04C215.75 47.08 216.69 47.11 217.37 47.13C218.07 47.15 218.58 47.16 218.9 47.16C219.44 47.16 219.82 47.14 220.04 47.1C220.28 47.06 220.42 46.93 220.46 46.71C220.52 46.49 220.55 46.12 220.55 45.6V29.25H201.95V50.04H198.71ZM203.36 41.97L201.35 39.45C203.25 38.55 204.8 37.55 206 36.45C207.2 35.33 208.08 34.04 208.64 32.58C209.22 31.12 209.51 29.43 209.51 27.51V23.25H212.75V27.54C212.75 30.74 211.97 33.53 210.41 35.91C208.87 38.27 206.52 40.29 203.36 41.97ZM218.27 42.18C216.87 40.36 215.44 38.78 213.98 37.44C212.52 36.08 211.11 35 209.75 34.2L212.06 32.25C213.66 33.33 215.21 34.57 216.71 35.97C218.21 37.37 219.58 38.87 220.82 40.47L218.27 42.18ZM230.39 44.01L229.04 41.58C230.6 40.72 232.04 39.86 233.36 39C234.68 38.12 235.94 37.19 237.14 36.21C238.36 35.23 239.57 34.16 240.77 33H244.73C245.93 34.16 247.13 35.23 248.33 36.21C249.55 37.19 250.82 38.12 252.14 39C253.46 39.86 254.9 40.72 256.46 41.58L255.11 44.01C252.73 42.73 250.53 41.35 248.51 39.87C246.51 38.39 244.59 36.73 242.75 34.89C240.91 36.73 238.98 38.39 236.96 39.87C234.96 41.35 232.77 42.73 230.39 44.01ZM233 50.7V39.6H252.5V50.7H249.29V49.2H236.21V46.74H249.29V42.15H236.21V50.7H233ZM231.5 36.93L230.15 34.62C231.87 33.68 233.43 32.66 234.83 31.56C236.25 30.44 237.5 29.23 238.58 27.93L240.62 29.61C239.56 31.01 238.26 32.33 236.72 33.57C235.2 34.79 233.46 35.91 231.5 36.93ZM229.55 31.98V25.53H241.1V22.68H244.4V25.53H255.95V31.98H252.8V28.08H232.7V31.98H229.55ZM253.22 37.05C251.96 35.85 250.59 34.66 249.11 33.48C247.63 32.28 246.06 31.1 244.4 29.94L246.14 27.81C247.86 28.97 249.46 30.16 250.94 31.38C252.42 32.58 253.8 33.8 255.08 35.04L253.22 37.05Z" fill="#F58BAB"></path></svg>