<svg xmlns="http://www.w3.org/2000/svg" width="517" height="75" viewBox="0 0 517 75" fill="none"><rect x="3.3999" y="5" width="513.6" height="70" fill="#DF7F9C"></rect><rect x="0.5" y="0.5" width="512.6" height="69" fill="white" stroke="#F58BAB"></rect><path d="M78.6 40.68C78.6 40.58 78.6 40.49 78.6 40.41C78.6 40.31 78.6 40.22 78.6 40.14V37.56H69.9V35.1H78.6V33H69.6V30.45H78.6V27.72H81.9V30.45H90.9V33H81.9V35.1H90.6V37.56H81.9V40.14C81.9 40.22 81.9 40.31 81.9 40.41C81.9 40.49 81.9 40.58 81.9 40.68H78.6ZM68.13 50.4L67.08 47.55C69.12 47.21 70.88 46.78 72.36 46.26C73.86 45.72 75.08 45.1 76.02 44.4C76.98 43.7 77.67 42.96 78.09 42.18H82.38C82.8 42.96 83.49 43.7 84.45 44.4C85.41 45.1 86.63 45.72 88.11 46.26C89.61 46.8 91.38 47.23 93.42 47.55L92.37 50.4C90.53 50.06 88.83 49.57 87.27 48.93C85.73 48.29 84.38 47.55 83.22 46.71C82.06 45.87 81.12 44.99 80.4 44.07C79.68 44.99 78.72 45.87 77.52 46.71C76.34 47.55 74.95 48.29 73.35 48.93C71.77 49.57 70.03 50.06 68.13 50.4ZM66.99 42.45V39.84H93.51V42.45H66.99ZM67.5 31.2V25.56H78.6V23.25H81.9V25.56H93V31.2H90V28.2H70.5V31.2H67.5ZM120.66 50.16C120.46 50.16 120.25 50.16 120.03 50.16C119.81 50.16 119.6 50.15 119.4 50.13C118.58 50.11 117.96 50.04 117.54 49.92C117.14 49.82 116.87 49.61 116.73 49.29C116.61 48.99 116.55 48.54 116.55 47.94V41.85H111.45V39.15H121.05V36.75H111.45V34.35H121.05V31.95H111.45V29.55H121.05V27.15H111.45V41.85H108.39V24.45H124.2V41.85H119.7V46.44C119.7 46.88 119.73 47.16 119.79 47.28C119.87 47.38 120.03 47.44 120.27 47.46C120.39 47.48 120.51 47.49 120.63 47.49C120.77 47.47 120.89 47.46 120.99 47.46C121.13 47.46 121.27 47.47 121.41 47.49C121.55 47.49 121.68 47.48 121.8 47.46C122.04 47.44 122.22 47.4 122.34 47.34C122.48 47.28 122.58 47.12 122.64 46.86C122.7 46.6 122.74 46.17 122.76 45.57C122.8 44.97 122.83 44.13 122.85 43.05L125.85 43.35C125.79 44.93 125.71 46.17 125.61 47.07C125.51 47.97 125.33 48.63 125.07 49.05C124.83 49.49 124.46 49.77 123.96 49.89C123.48 50.01 122.82 50.09 121.98 50.13C121.78 50.13 121.56 50.13 121.32 50.13C121.1 50.15 120.88 50.16 120.66 50.16ZM98.1 48.15L97.77 45.39C98.83 45.15 99.91 44.89 101.01 44.61C102.11 44.31 103.22 43.99 104.34 43.65C105.46 43.29 106.56 42.92 107.64 42.54L107.94 45.21C106.88 45.59 105.78 45.96 104.64 46.32C103.52 46.68 102.4 47.02 101.28 47.34C100.18 47.64 99.12 47.91 98.1 48.15ZM105.63 50.61L104.49 47.91C107.01 47.29 108.88 46.37 110.1 45.15C111.34 43.91 111.96 42.38 111.96 40.56L114.99 40.95C114.91 43.39 114.07 45.43 112.47 47.07C110.89 48.69 108.61 49.87 105.63 50.61ZM101.19 45V36.9H98.19V34.14H101.19V27.9H97.89V25.05H107.49V27.9H104.31V34.14H107.31V36.9H104.31V45H101.19ZM147.75 49.35C145.37 49.35 143.29 48.92 141.51 48.06C139.75 47.22 138.39 46.03 137.43 44.49C136.47 42.93 135.99 41.1 135.99 39C135.99 37.32 136.3 35.76 136.92 34.32C137.54 32.88 138.42 31.63 139.56 30.57C140.72 29.51 142.09 28.7 143.67 28.14L143.91 29.07L129.21 29.4V26.55L154.41 25.95V28.8L150.63 28.89C148.95 28.93 147.42 29.2 146.04 29.7C144.66 30.18 143.47 30.86 142.47 31.74C141.47 32.6 140.7 33.62 140.16 34.8C139.62 35.98 139.35 37.28 139.35 38.7C139.35 40.28 139.69 41.65 140.37 42.81C141.05 43.95 142.02 44.84 143.28 45.48C144.54 46.1 146.04 46.41 147.78 46.41C148.14 46.41 148.55 46.4 149.01 46.38C149.47 46.34 149.93 46.3 150.39 46.26C150.87 46.2 151.28 46.14 151.62 46.08L151.98 49.02C151.58 49.08 151.13 49.13 150.63 49.17C150.13 49.23 149.63 49.27 149.13 49.29C148.63 49.33 148.17 49.35 147.75 49.35ZM151.11 39.87C150.65 38.85 150.16 37.88 149.64 36.96C149.12 36.04 148.52 35.09 147.84 34.11L150.3 32.73C150.98 33.71 151.58 34.68 152.1 35.64C152.64 36.58 153.15 37.58 153.63 38.64L151.11 39.87ZM155.58 38.16C155.14 37.12 154.66 36.14 154.14 35.22C153.64 34.28 153.07 33.32 152.43 32.34L154.86 31.05C155.52 32.03 156.11 33 156.63 33.96C157.17 34.92 157.66 35.94 158.1 37.02L155.58 38.16ZM176.16 49.5C173.74 49.5 171.64 49.26 169.86 48.78C168.08 48.32 166.71 47.66 165.75 46.8C164.79 45.94 164.31 44.92 164.31 43.74C164.31 42.68 164.69 41.7 165.45 40.8C166.21 39.88 167.27 39.12 168.63 38.52L170.4 40.77C169.42 41.21 168.72 41.65 168.3 42.09C167.88 42.51 167.68 42.99 167.7 43.53C167.72 44.21 168.05 44.79 168.69 45.27C169.33 45.75 170.26 46.12 171.48 46.38C172.72 46.62 174.21 46.74 175.95 46.74C177.43 46.74 178.97 46.65 180.57 46.47C182.17 46.27 183.66 46.01 185.04 45.69L185.49 48.45C184.07 48.79 182.55 49.05 180.93 49.23C179.33 49.41 177.74 49.5 176.16 49.5ZM162.9 36.81V34.2L186.6 33.6V36.21L162.9 36.81ZM179.28 43.23C178.62 41.67 178.03 40.11 177.51 38.55C176.99 36.97 176.54 35.38 176.16 33.78C175.8 32.18 175.5 30.54 175.26 28.86C175.02 27.18 174.85 25.44 174.75 23.64L177.9 23.46C178 25.2 178.16 26.87 178.38 28.47C178.62 30.07 178.92 31.64 179.28 33.18C179.64 34.72 180.08 36.26 180.6 37.8C181.14 39.34 181.76 40.91 182.46 42.51L179.28 43.23ZM163.2 30.18V27.57L186.3 26.97V29.58L163.2 30.18ZM205.53 49.8C202.59 49.8 200.31 49.33 198.69 48.39C197.09 47.45 196.29 46.12 196.29 44.4C196.29 42.94 196.89 41.8 198.09 40.98C199.31 40.16 200.98 39.75 203.1 39.75C205.12 39.75 206.64 40.13 207.66 40.89C208.68 41.65 209.19 42.77 209.19 44.25C209.19 44.81 209.11 45.4 208.95 46.02C208.81 46.64 208.58 47.3 208.26 48L205.23 47.64C205.53 46.94 205.75 46.34 205.89 45.84C206.03 45.34 206.1 44.9 206.1 44.52C206.1 43.04 205.03 42.3 202.89 42.3C201.79 42.3 200.94 42.48 200.34 42.84C199.74 43.2 199.44 43.71 199.44 44.37C199.44 45.27 199.96 45.99 201 46.53C202.04 47.05 203.43 47.31 205.17 47.31C208.49 47.31 210.96 46.81 212.58 45.81C214.22 44.81 215.04 43.3 215.04 41.28C215.04 39.56 214.4 38.3 213.12 37.5C211.86 36.68 209.87 36.27 207.15 36.27C205.57 36.27 204.17 36.41 202.95 36.69C201.73 36.97 200.62 37.4 199.62 37.98L195.6 40.35L194.31 37.92L211.8 27.93V28.5H196.05V25.8H216.36V28.5L201.99 36.6L200.34 35.25C200.94 35.03 201.6 34.83 202.32 34.65C203.06 34.47 203.81 34.32 204.57 34.2C205.35 34.06 206.1 33.95 206.82 33.87C207.54 33.79 208.2 33.75 208.8 33.75C211.84 33.75 214.17 34.39 215.79 35.67C217.43 36.93 218.25 38.74 218.25 41.1C218.25 43.88 217.15 46.03 214.95 47.55C212.75 49.05 209.61 49.8 205.53 49.8ZM238.05 49.05C235.73 49.05 233.7 48.79 231.96 48.27C230.22 47.75 228.87 47.02 227.91 46.08C226.97 45.14 226.5 44.03 226.5 42.75C226.5 41.69 226.84 40.55 227.52 39.33C228.22 38.11 229.28 36.76 230.7 35.28L233.34 36.87C232.18 38.03 231.3 39.08 230.7 40.02C230.12 40.94 229.83 41.75 229.83 42.45C229.83 43.19 230.17 43.85 230.85 44.43C231.53 44.99 232.49 45.43 233.73 45.75C234.97 46.05 236.41 46.2 238.05 46.2C239.07 46.2 240.18 46.14 241.38 46.02C242.6 45.9 243.79 45.74 244.95 45.54C246.11 45.32 247.11 45.09 247.95 44.85L248.61 47.67C247.77 47.93 246.74 48.16 245.52 48.36C244.3 48.58 243.03 48.75 241.71 48.87C240.41 48.99 239.19 49.05 238.05 49.05ZM228 29.1V26.25H247.8V29.1H228ZM269.28 49.53C265.56 49.53 262.74 48.96 260.82 47.82C258.9 46.66 257.94 44.97 257.94 42.75C257.94 40.87 258.64 39.16 260.04 37.62C261.46 36.06 263.67 34.62 266.67 33.3C269.67 31.96 273.53 30.68 278.25 29.46L279 32.31C274.9 33.37 271.54 34.44 268.92 35.52C266.3 36.6 264.36 37.72 263.1 38.88C261.86 40.02 261.24 41.24 261.24 42.54C261.24 45.28 263.98 46.65 269.46 46.65C270.34 46.65 271.26 46.61 272.22 46.53C273.2 46.45 274.27 46.34 275.43 46.2C276.61 46.04 277.92 45.84 279.36 45.6L279.75 48.48C277.87 48.8 276.04 49.05 274.26 49.23C272.5 49.43 270.84 49.53 269.28 49.53ZM263.76 36.12C263.18 34.16 262.69 32.25 262.29 30.39C261.89 28.51 261.57 26.63 261.33 24.75L264.54 24.27C264.8 26.15 265.13 28.01 265.53 29.85C265.93 31.67 266.41 33.5 266.97 35.34L263.76 36.12ZM298.35 39.6V34.8H303.15V39.6H298.35ZM337.47 42.51C337.03 42.51 336.55 42.5 336.03 42.48C335.51 42.44 334.99 42.4 334.47 42.36V39.57C334.93 39.59 335.38 39.62 335.82 39.66C336.28 39.68 336.69 39.69 337.05 39.69C339.05 39.69 340.5 39.32 341.4 38.58C342.32 37.84 342.78 36.67 342.78 35.07C342.78 32.37 341.53 31.02 339.03 31.02C338.61 31.02 338.12 31.07 337.56 31.17C337 31.25 336.33 31.39 335.55 31.59C334.79 31.79 333.85 32.08 332.73 32.46L318.81 37.05L317.88 34.23L331.83 29.64C332.95 29.26 333.94 28.96 334.8 28.74C335.66 28.5 336.44 28.33 337.14 28.23C337.86 28.11 338.54 28.05 339.18 28.05C341.38 28.05 343.06 28.64 344.22 29.82C345.4 31 345.99 32.7 345.99 34.92C345.99 37.4 345.27 39.29 343.83 40.59C342.39 41.87 340.27 42.51 337.47 42.51ZM328.65 50.13C327.97 47.35 327.24 44.57 326.46 41.79C325.7 38.99 324.92 36.25 324.12 33.57C323.34 30.87 322.55 28.29 321.75 25.83L324.75 24.99C325.55 27.47 326.35 30.07 327.15 32.79C327.95 35.49 328.73 38.25 329.49 41.07C330.27 43.87 331.02 46.67 331.74 49.47L328.65 50.13ZM334.14 37.14C333.72 35.54 333.2 33.69 332.58 31.59C331.96 29.47 331.27 27.2 330.51 24.78L333.51 23.94C333.95 25.24 334.38 26.6 334.8 28.02C335.24 29.44 335.66 30.86 336.06 32.28C336.46 33.68 336.82 35.02 337.14 36.3L334.14 37.14ZM355.17 46.5C359.09 46.5 362.25 46.16 364.65 45.48C367.05 44.78 368.8 43.67 369.9 42.15C371 40.63 371.55 38.65 371.55 36.21C371.55 33.71 371.02 31.84 369.96 30.6C368.9 29.34 367.3 28.71 365.16 28.71C363.96 28.71 362.83 28.91 361.77 29.31C360.73 29.71 359.81 30.28 359.01 31.02C358.23 31.76 357.61 32.64 357.15 33.66C356.71 34.66 356.49 35.76 356.49 36.96V40.86H353.4V25.11H356.49V31.71H355.26C355.92 30.43 356.75 29.35 357.75 28.47C358.77 27.57 359.93 26.89 361.23 26.43C362.53 25.95 363.94 25.71 365.46 25.71C368.48 25.71 370.79 26.61 372.39 28.41C373.99 30.21 374.79 32.81 374.79 36.21C374.79 39.27 374.1 41.78 372.72 43.74C371.36 45.68 369.25 47.11 366.39 48.03C363.53 48.97 359.84 49.44 355.32 49.44L355.17 46.5ZM381.99 48.63C382.75 46.77 383.42 45.04 384 43.44C384.6 41.84 385.14 40.3 385.62 38.82C386.1 37.32 386.54 35.81 386.94 34.29C387.34 32.75 387.71 31.12 388.05 29.4C388.41 27.68 388.76 25.79 389.1 23.73L392.16 24.09C391.84 26.09 391.5 27.96 391.14 29.7C390.8 31.42 390.42 33.08 390 34.68C389.6 36.26 389.15 37.84 388.65 39.42C388.15 40.98 387.59 42.59 386.97 44.25C386.35 45.91 385.66 47.68 384.9 49.56L381.99 48.63ZM406.41 44.73C406.23 43.53 405.98 42.25 405.66 40.89C405.36 39.51 405.01 38.13 404.61 36.75C404.23 35.35 403.82 34.01 403.38 32.73L406.29 31.8C406.73 33.12 407.15 34.49 407.55 35.91C407.97 37.33 408.34 38.75 408.66 40.17C408.98 41.57 409.24 42.91 409.44 44.19L406.41 44.73ZM403.08 31.02C402.56 29.92 402.05 28.94 401.55 28.08C401.07 27.22 400.53 26.38 399.93 25.56L402.27 24.18C402.91 25.04 403.48 25.93 403.98 26.85C404.48 27.77 404.98 28.77 405.48 29.85L403.08 31.02ZM407.25 29.43C406.77 28.31 406.29 27.32 405.81 26.46C405.33 25.58 404.8 24.74 404.22 23.94L406.53 22.65C407.17 23.53 407.73 24.43 408.21 25.35C408.71 26.27 409.19 27.27 409.65 28.35L407.25 29.43ZM396.12 48.9C395.62 48.9 394.98 48.83 394.2 48.69C393.42 48.55 392.6 48.36 391.74 48.12C390.88 47.88 390.06 47.62 389.28 47.34L390.03 44.61C390.69 44.83 391.36 45.04 392.04 45.24C392.72 45.44 393.35 45.6 393.93 45.72C394.51 45.84 394.96 45.9 395.28 45.9C395.96 45.9 396.52 45.58 396.96 44.94C397.42 44.3 397.77 43.32 398.01 42C398.25 40.66 398.37 38.98 398.37 36.96C398.37 35.76 398.32 34.8 398.22 34.08C398.14 33.34 397.97 32.79 397.71 32.43C397.45 32.05 397.05 31.8 396.51 31.68C395.97 31.56 395.25 31.5 394.35 31.5H381.6V28.74H394.05C395.41 28.74 396.54 28.8 397.44 28.92C398.34 29.02 399.06 29.23 399.6 29.55C400.14 29.85 400.55 30.32 400.83 30.96C401.11 31.58 401.29 32.41 401.37 33.45C401.47 34.49 401.52 35.78 401.52 37.32C401.52 39.9 401.32 42.05 400.92 43.77C400.54 45.47 399.95 46.75 399.15 47.61C398.35 48.47 397.34 48.9 396.12 48.9ZM421.41 48.75C420.43 48.75 419.51 48.43 418.65 47.79C417.81 47.15 417.07 46.26 416.43 45.12C415.79 43.98 415.29 42.65 414.93 41.13C414.59 39.59 414.42 37.93 414.42 36.15C414.42 34.73 414.54 33.21 414.78 31.59C415.04 29.95 415.42 28.25 415.92 26.49L419.04 26.88C418.58 28.5 418.23 30.07 417.99 31.59C417.75 33.09 417.63 34.5 417.63 35.82C417.63 37.12 417.74 38.35 417.96 39.51C418.18 40.65 418.48 41.66 418.86 42.54C419.24 43.42 419.67 44.11 420.15 44.61C420.63 45.11 421.14 45.36 421.68 45.36C422.18 45.36 422.73 45.15 423.33 44.73C423.93 44.31 424.54 43.74 425.16 43.02C425.78 42.28 426.36 41.45 426.9 40.53C427.44 39.59 427.89 38.61 428.25 37.59L431.1 39.03C430.62 40.37 430.01 41.63 429.27 42.81C428.55 43.99 427.75 45.03 426.87 45.93C425.99 46.81 425.08 47.5 424.14 48C423.2 48.5 422.29 48.75 421.41 48.75ZM436.74 45.87C436.74 43.57 436.58 41.3 436.26 39.06C435.96 36.8 435.51 34.64 434.91 32.58C434.31 30.5 433.59 28.61 432.75 26.91L435.69 26.01C436.61 27.79 437.38 29.75 438 31.89C438.62 34.01 439.09 36.25 439.41 38.61C439.75 40.97 439.92 43.39 439.92 45.87H436.74Z" fill="#F58BAB"></path></svg>