<svg xmlns="http://www.w3.org/2000/svg" width="787" height="75" viewBox="0 0 787 75" fill="none"><rect x="5" y="5" width="782" height="70" fill="#F58BAB"></rect><rect x="1" y="1" width="780" height="68" fill="white" stroke="#F58BAB" stroke-width="2"></rect><path d="M79.35 49.7V35.9H72.96V33.65H79.35V27.44H67.5V24.86H79.35V22.4H82.65V24.86H94.5V27.44H82.65V33.65H89.04V31.55H72.96V40.55H69.9V29.15H92.1V40.55H72.96V38.15H89.04V35.9H82.65V49.7H79.35ZM68.31 49.25L66.99 46.55C69.79 45.49 72.22 44.36 74.28 43.16C76.34 41.96 78.04 40.71 79.38 39.41L81.03 41.18C79.65 42.64 77.9 44.05 75.78 45.41C73.66 46.77 71.17 48.05 68.31 49.25ZM93.69 49.25C90.83 48.05 88.34 46.77 86.22 45.41C84.1 44.05 82.35 42.64 80.97 41.18L82.62 39.41C83.98 40.71 85.69 41.96 87.75 43.16C89.81 44.36 92.23 45.49 95.01 46.55L93.69 49.25ZM110.25 49.4C109.81 49.4 109.25 49.39 108.57 49.37C107.89 49.35 107.02 49.31 105.96 49.25L105.84 46.46C106.84 46.52 107.64 46.57 108.24 46.61C108.86 46.63 109.36 46.64 109.74 46.64C110.22 46.64 110.55 46.62 110.73 46.58C110.93 46.52 111.05 46.38 111.09 46.16C111.13 45.94 111.15 45.57 111.15 45.05V39.2H105.24V36.74H119.76V31.7H105.24V39.2H102V29.3H123V39.2H114.45V45.05C114.45 46.03 114.4 46.81 114.3 47.39C114.22 47.99 114.04 48.43 113.76 48.71C113.48 48.99 113.06 49.17 112.5 49.25C111.94 49.35 111.19 49.4 110.25 49.4ZM100.74 48.71L98.85 46.49C100.25 45.55 101.55 44.51 102.75 43.37C103.95 42.23 105.01 41.04 105.93 39.8L108.21 41.54C107.27 42.88 106.16 44.16 104.88 45.38C103.6 46.6 102.22 47.71 100.74 48.71ZM124.08 48.89C122.92 47.61 121.71 46.39 120.45 45.23C119.19 44.07 117.88 42.97 116.52 41.93L118.53 39.77C119.93 40.81 121.26 41.92 122.52 43.1C123.8 44.28 125.02 45.52 126.18 46.82L124.08 48.89ZM99 27.5V24.86H110.85V22.4H114.15V24.86H126V27.5H99ZM135.45 45.41C138.33 45.33 140.76 45.06 142.74 44.6C144.72 44.12 146.31 43.41 147.51 42.47C148.71 41.51 149.57 40.27 150.09 38.75C150.63 37.21 150.9 35.33 150.9 33.11V23.9H154.29V33.05C154.29 35.73 153.95 38.03 153.27 39.95C152.59 41.85 151.51 43.41 150.03 44.63C148.57 45.85 146.67 46.76 144.33 47.36C141.99 47.96 139.16 48.29 135.84 48.35L135.45 45.41ZM133.89 37.7V23.9H137.25V37.7H133.89ZM183.6 48.5V46.4H163.65V43.55H183.6V27.95H163.65V25.1H186.9V48.5H183.6ZM196.35 44.87C199.35 44.59 202.01 44.04 204.33 43.22C206.65 42.4 208.65 41.29 210.33 39.89C212.01 38.49 213.39 36.8 214.47 34.82C215.57 32.82 216.38 30.5 216.9 27.86L219.9 28.52C219.2 32.46 217.88 35.81 215.94 38.57C214 41.31 211.44 43.46 208.26 45.02C205.08 46.58 201.27 47.56 196.83 47.96L196.35 44.87ZM205.23 32.27C203.63 31.27 202.01 30.36 200.37 29.54C198.73 28.7 197.07 27.94 195.39 27.26L196.86 24.44C200.24 25.78 203.57 27.46 206.85 29.48L205.23 32.27ZM228.36 46.01C231.46 45.67 233.77 44.75 235.29 43.25C236.83 41.75 237.6 39.67 237.6 37.01V36.11H225V33.26H251.4V36.11H240.9V37.01C240.9 39.33 240.44 41.34 239.52 43.04C238.6 44.74 237.26 46.08 235.5 47.06C233.76 48.06 231.62 48.67 229.08 48.89L228.36 46.01ZM227.85 27.56V24.71H246.45V27.56H227.85ZM246.78 30.17C246.26 29.07 245.75 28.09 245.25 27.23C244.77 26.37 244.23 25.53 243.63 24.71L245.97 23.33C246.61 24.19 247.18 25.08 247.68 26C248.18 26.92 248.68 27.92 249.18 29L246.78 30.17ZM250.95 28.58C250.47 27.46 249.99 26.47 249.51 25.61C249.03 24.73 248.5 23.89 247.92 23.09L250.23 21.8C250.87 22.68 251.43 23.58 251.91 24.5C252.41 25.42 252.89 26.42 253.35 27.5L250.95 28.58ZM259.68 37.82C261.34 37.58 263.05 37.16 264.81 36.56C266.59 35.96 268.33 35.22 270.03 34.34C271.75 33.46 273.34 32.49 274.8 31.43C276.28 30.35 277.54 29.23 278.58 28.07L280.53 30.29C279.39 31.51 278.03 32.69 276.45 33.83C274.87 34.97 273.16 36.01 271.32 36.95C269.48 37.89 267.6 38.69 265.68 39.35C263.78 39.99 261.94 40.44 260.16 40.7L259.68 37.82ZM269.61 48.92V35.15H272.85V48.92H269.61ZM290.88 44.81C294.12 44.73 296.95 44.34 299.37 43.64C301.79 42.94 303.84 41.91 305.52 40.55C307.22 39.17 308.57 37.45 309.57 35.39C310.57 33.31 311.26 30.85 311.64 28.01L314.7 28.49C314.12 32.75 312.9 36.29 311.04 39.11C309.18 41.91 306.62 44.03 303.36 45.47C300.1 46.89 296.09 47.68 291.33 47.84L290.88 44.81ZM299.88 35.96C298 35.5 296.25 35.13 294.63 34.85C293.03 34.55 291.37 34.3 289.65 34.1L290.28 31.31C292.02 31.53 293.69 31.79 295.29 32.09C296.91 32.37 298.66 32.74 300.54 33.2L299.88 35.96ZM301.62 28.76C299.7 28.32 297.9 27.95 296.22 27.65C294.56 27.35 292.82 27.1 291 26.9L291.63 24.11C293.47 24.33 295.23 24.59 296.91 24.89C298.59 25.17 300.38 25.54 302.28 26L301.62 28.76ZM338.94 48.32V46.64H323.52V43.82H338.94V39.35H324.48V36.59H338.94V32.66H323.52V29.84H342.12V48.32H338.94ZM352.2 46.7V43.61H376.8V46.7H352.2ZM353.7 28.76V25.7H375.3V28.76H353.7ZM385.35 44.87C388.35 44.59 391.01 44.04 393.33 43.22C395.65 42.4 397.65 41.29 399.33 39.89C401.01 38.49 402.39 36.8 403.47 34.82C404.57 32.82 405.38 30.5 405.9 27.86L408.9 28.52C408.2 32.46 406.88 35.81 404.94 38.57C403 41.31 400.44 43.46 397.26 45.02C394.08 46.58 390.27 47.56 385.83 47.96L385.35 44.87ZM394.23 32.27C392.63 31.27 391.01 30.36 389.37 29.54C387.73 28.7 386.07 27.94 384.39 27.26L385.86 24.44C389.24 25.78 392.57 27.46 395.85 29.48L394.23 32.27ZM417.51 45.65C420.25 45.37 422.75 44.74 425.01 43.76C427.27 42.76 429.22 41.48 430.86 39.92C432.52 38.34 433.8 36.54 434.7 34.52C435.6 32.48 436.05 30.29 436.05 27.95L437.4 29.45H422.7V26.6H439.29V27.95C439.29 30.15 438.96 32.23 438.3 34.19C437.66 36.15 436.73 37.95 435.51 39.59C434.29 41.23 432.82 42.68 431.1 43.94C429.4 45.18 427.48 46.2 425.34 47C423.22 47.78 420.92 48.29 418.44 48.53L417.51 45.65ZM413.55 35.39C415.05 34.31 416.44 33.1 417.72 31.76C419.02 30.4 420.17 28.97 421.17 27.47C422.17 25.95 422.95 24.44 423.51 22.94L426.69 23.51C426.09 25.31 425.26 27.05 424.2 28.73C423.16 30.39 421.91 31.97 420.45 33.47C419.01 34.95 417.39 36.32 415.59 37.58L413.55 35.39ZM434.79 28.61C434.25 27.49 433.73 26.51 433.23 25.67C432.73 24.83 432.17 24.02 431.55 23.24L433.8 21.77C434.48 22.63 435.09 23.51 435.63 24.41C436.17 25.31 436.69 26.29 437.19 27.35L434.79 28.61ZM439.26 28.13C438.78 27.01 438.3 26.02 437.82 25.16C437.34 24.3 436.82 23.47 436.26 22.67L438.54 21.35C439.18 22.23 439.74 23.13 440.22 24.05C440.72 24.97 441.2 25.97 441.66 27.05L439.26 28.13ZM458.64 47.69C457.14 47.69 455.91 47.58 454.95 47.36C453.99 47.16 453.24 46.8 452.7 46.28C452.16 45.74 451.78 45.01 451.56 44.09C451.34 43.17 451.23 41.99 451.23 40.55V23.36H454.38V39.95C454.38 41.05 454.43 41.93 454.53 42.59C454.65 43.23 454.87 43.71 455.19 44.03C455.53 44.35 456.03 44.56 456.69 44.66C457.37 44.76 458.27 44.81 459.39 44.81C460.71 44.81 462.02 44.79 463.32 44.75C464.64 44.69 465.95 44.6 467.25 44.48C468.55 44.36 469.84 44.22 471.12 44.06L471.3 46.91C469.9 47.07 468.49 47.21 467.07 47.33C465.65 47.45 464.23 47.54 462.81 47.6C461.41 47.66 460.02 47.69 458.64 47.69ZM444.87 33.71L444.42 30.8L471.48 26.6L471.93 29.51L444.87 33.71ZM461.46 37.88C462.72 37.1 463.84 36.23 464.82 35.27C465.82 34.29 466.67 33.24 467.37 32.12C468.09 30.98 468.64 29.8 469.02 28.58L471.93 29.51C471.57 30.87 470.99 32.21 470.19 33.53C469.39 34.83 468.42 36.05 467.28 37.19C466.14 38.33 464.88 39.34 463.5 40.22L461.46 37.88ZM479.85 44.87C482.85 44.59 485.51 44.04 487.83 43.22C490.15 42.4 492.15 41.29 493.83 39.89C495.51 38.49 496.89 36.8 497.97 34.82C499.07 32.82 499.88 30.5 500.4 27.86L503.4 28.52C502.7 32.46 501.38 35.81 499.44 38.57C497.5 41.31 494.94 43.46 491.76 45.02C488.58 46.58 484.77 47.56 480.33 47.96L479.85 44.87ZM488.73 32.27C487.13 31.27 485.51 30.36 483.87 29.54C482.23 28.7 480.57 27.94 478.89 27.26L480.36 24.44C483.74 25.78 487.07 27.46 490.35 29.48L488.73 32.27ZM512.16 45.65C514.36 45.43 516.4 44.97 518.28 44.27C520.18 43.55 521.89 42.64 523.41 41.54C524.95 40.42 526.26 39.14 527.34 37.7C528.42 36.24 529.25 34.65 529.83 32.93C530.41 31.19 530.7 29.35 530.7 27.41L532.05 28.91H517.35V26.06H533.94V27.41C533.94 29.67 533.61 31.81 532.95 33.83C532.31 35.83 531.38 37.67 530.16 39.35C528.94 41.03 527.47 42.52 525.75 43.82C524.05 45.1 522.13 46.14 519.99 46.94C517.87 47.74 515.57 48.27 513.09 48.53L512.16 45.65ZM508.2 34.94C509.7 33.86 511.09 32.64 512.37 31.28C513.67 29.9 514.82 28.45 515.82 26.93C516.82 25.39 517.6 23.86 518.16 22.34L521.34 22.91C520.74 24.73 519.91 26.49 518.85 28.19C517.81 29.87 516.56 31.47 515.1 32.99C513.66 34.49 512.04 35.87 510.24 37.13L508.2 34.94ZM526.98 41.6C525.22 40.16 523.5 38.83 521.82 37.61C520.16 36.39 518.51 35.27 516.87 34.25L518.76 31.79C520.6 32.93 522.36 34.12 524.04 35.36C525.74 36.58 527.36 37.84 528.9 39.14L526.98 41.6ZM541.2 37.76V34.61H565.8V37.76H541.2ZM589.5 48.35C587.12 48.35 585.04 47.92 583.26 47.06C581.5 46.22 580.14 45.03 579.18 43.49C578.22 41.93 577.74 40.1 577.74 38C577.74 36.32 578.05 34.76 578.67 33.32C579.29 31.88 580.17 30.63 581.31 29.57C582.47 28.51 583.84 27.7 585.42 27.14L585.66 28.07L570.96 28.4V25.55L596.16 24.95V27.8L592.38 27.89C590.7 27.93 589.17 28.2 587.79 28.7C586.41 29.18 585.22 29.86 584.22 30.74C583.22 31.6 582.45 32.62 581.91 33.8C581.37 34.98 581.1 36.28 581.1 37.7C581.1 39.28 581.44 40.65 582.12 41.81C582.8 42.95 583.77 43.84 585.03 44.48C586.29 45.1 587.79 45.41 589.53 45.41C589.89 45.41 590.3 45.4 590.76 45.38C591.22 45.34 591.68 45.3 592.14 45.26C592.62 45.2 593.03 45.14 593.37 45.08L593.73 48.02C593.33 48.08 592.88 48.13 592.38 48.17C591.88 48.23 591.38 48.27 590.88 48.29C590.38 48.33 589.92 48.35 589.5 48.35ZM592.86 38.87C592.4 37.85 591.91 36.88 591.39 35.96C590.87 35.04 590.27 34.09 589.59 33.11L592.05 31.73C592.73 32.71 593.33 33.68 593.85 34.64C594.39 35.58 594.9 36.58 595.38 37.64L592.86 38.87ZM597.33 37.16C596.89 36.12 596.41 35.14 595.89 34.22C595.39 33.28 594.82 32.32 594.18 31.34L596.61 30.05C597.27 31.03 597.86 32 598.38 32.96C598.92 33.92 599.41 34.94 599.85 36.02L597.33 37.16ZM612.99 47.9V44.75H608.49V42.35H612.99V41H611.43V38.66H617.73V37.25H611.43V35.45H617.73V34.04H616.08V38.66H613.08V34.04H611.43V41H608.64V31.7H612.99V30.35H608.49V27.95H612.99V25.1H616.14V27.95H620.58V30.35H616.14V31.7H620.43V41H616.14V42.35H620.19V44.75H616.14V47.9H612.99ZM604.26 49.7V30.53H607.26V49.7H604.26ZM608.28 49.31L608.1 46.64C609.38 46.56 610.73 46.46 612.15 46.34C613.57 46.22 614.98 46.09 616.38 45.95C617.78 45.79 619.09 45.62 620.31 45.44L620.52 47.96C619.26 48.16 617.93 48.34 616.53 48.5C615.13 48.68 613.73 48.83 612.33 48.95C610.93 49.09 609.58 49.21 608.28 49.31ZM602.97 39.29L601.74 35.81C602.48 34.57 603.13 33.28 603.69 31.94C604.27 30.58 604.77 29.13 605.19 27.59C605.61 26.05 605.96 24.39 606.24 22.61L609.06 22.73C608.8 24.85 608.43 26.85 607.95 28.73C607.49 30.61 606.94 32.31 606.3 33.83L606.24 32.03C606.08 32.63 605.87 33.26 605.61 33.92C605.37 34.58 605.1 35.24 604.8 35.9C604.5 36.54 604.19 37.16 603.87 37.76C603.57 38.34 603.27 38.85 602.97 39.29ZM621.51 49.55L618.99 47.96C619.47 47.06 619.9 46.12 620.28 45.14C620.66 44.14 620.99 43 621.27 41.72C621.55 40.42 621.78 38.9 621.96 37.16C622.14 35.42 622.27 33.37 622.35 31.01C622.45 28.63 622.5 25.84 622.5 22.64H625.44C625.44 25.9 625.39 28.77 625.29 31.25C625.19 33.71 625.04 35.87 624.84 37.73C624.64 39.59 624.38 41.22 624.06 42.62C623.74 44.02 623.37 45.28 622.95 46.4C622.53 47.5 622.05 48.55 621.51 49.55ZM627.45 49.04C627.23 49.04 626.92 49.02 626.52 48.98C626.12 48.96 625.69 48.92 625.23 48.86C624.77 48.82 624.33 48.77 623.91 48.71L623.88 45.89C624.46 46.01 624.92 46.09 625.26 46.13C625.6 46.15 625.89 46.16 626.13 46.16C626.27 46.16 626.39 46.08 626.49 45.92C626.61 45.74 626.71 45.4 626.79 44.9C626.89 44.38 626.97 43.63 627.03 42.65C627.11 41.65 627.16 40.34 627.18 38.72C627.22 37.08 627.24 35.04 627.24 32.6V31.34H620.1V28.64H630.24V30.56C630.24 33.54 630.22 36.07 630.18 38.15C630.16 40.23 630.11 41.95 630.03 43.31C629.95 44.65 629.84 45.71 629.7 46.49C629.58 47.27 629.41 47.84 629.19 48.2C628.99 48.56 628.74 48.79 628.44 48.89C628.16 48.99 627.83 49.04 627.45 49.04ZM609.54 26.75L609.24 24.14C610.12 24.1 611.04 24.04 612 23.96C612.96 23.86 613.91 23.75 614.85 23.63C615.81 23.51 616.72 23.38 617.58 23.24C618.46 23.1 619.25 22.95 619.95 22.79L620.52 25.46C619.52 25.66 618.4 25.85 617.16 26.03C615.94 26.21 614.67 26.36 613.35 26.48C612.05 26.6 610.78 26.69 609.54 26.75ZM655.05 49.82C653.55 48.7 652.18 47.71 650.94 46.85C649.7 45.97 648.55 45.19 647.49 44.51C646.43 43.81 645.41 43.16 644.43 42.56C643.45 41.94 642.45 41.32 641.43 40.7C640.41 40.08 639.58 39.56 638.94 39.14C638.32 38.72 637.84 38.35 637.5 38.03C637.16 37.71 636.92 37.39 636.78 37.07C636.66 36.73 636.6 36.34 636.6 35.9C636.6 35.44 636.67 35.04 636.81 34.7C636.95 34.34 637.2 34 637.56 33.68C637.92 33.34 638.43 32.96 639.09 32.54C639.75 32.12 640.6 31.62 641.64 31.04C642.74 30.42 643.95 29.72 645.27 28.94C646.61 28.14 648.03 27.26 649.53 26.3C651.05 25.34 652.6 24.3 654.18 23.18L656.13 25.73C655.17 26.39 654.18 27.04 653.16 27.68C652.16 28.32 651.18 28.93 650.22 29.51C649.26 30.09 648.34 30.63 647.46 31.13C646.6 31.63 645.82 32.08 645.12 32.48C644.44 32.86 643.88 33.17 643.44 33.41C642.58 33.89 641.91 34.27 641.43 34.55C640.97 34.83 640.65 35.07 640.47 35.27C640.29 35.47 640.2 35.68 640.2 35.9C640.2 36.12 640.26 36.32 640.38 36.5C640.52 36.66 640.79 36.87 641.19 37.13C641.61 37.37 642.24 37.74 643.08 38.24C643.56 38.5 644.17 38.85 644.91 39.29C645.65 39.73 646.49 40.24 647.43 40.82C648.39 41.38 649.4 42 650.46 42.68C651.52 43.36 652.61 44.09 653.73 44.87C654.87 45.63 655.99 46.42 657.09 47.24L655.05 49.82ZM687.24 49.16C685.96 49.16 684.92 49.12 684.12 49.04C683.34 48.96 682.75 48.8 682.35 48.56C681.97 48.32 681.71 47.96 681.57 47.48C681.43 47 681.36 46.36 681.36 45.56V36.74H666.24V33.95H678.3V28.85H671.16V26.15H678.3V22.55H681.6V26.15H690.9V28.85H681.6V33.95H692.76V36.74H684.6V44.9C684.6 45.24 684.61 45.51 684.63 45.71C684.67 45.91 684.77 46.06 684.93 46.16C685.11 46.26 685.39 46.33 685.77 46.37C686.15 46.39 686.68 46.4 687.36 46.4C688 46.4 688.5 46.37 688.86 46.31C689.22 46.23 689.48 46.04 689.64 45.74C689.82 45.42 689.95 44.89 690.03 44.15C690.13 43.41 690.22 42.38 690.3 41.06L693.21 41.3C693.13 42.78 693.03 44.01 692.91 44.99C692.81 45.95 692.64 46.71 692.4 47.27C692.18 47.85 691.86 48.27 691.44 48.53C691.04 48.79 690.5 48.96 689.82 49.04C689.14 49.12 688.28 49.16 687.24 49.16ZM667.17 49.55L665.88 46.79C667.76 46.27 669.37 45.51 670.71 44.51C672.05 43.49 673.1 42.26 673.86 40.82C674.62 39.36 675.05 37.74 675.15 35.96L678.21 36.44C677.91 39.86 676.83 42.67 674.97 44.87C673.13 47.05 670.53 48.61 667.17 49.55ZM669.87 33.38L667.08 31.91C668.02 30.55 668.85 29.09 669.57 27.53C670.31 25.97 670.9 24.35 671.34 22.67L674.25 23.42C673.83 25.16 673.24 26.89 672.48 28.61C671.74 30.31 670.87 31.9 669.87 33.38ZM709.35 50.15V48.05H697.35V45.74H709.35V36.56H697.65V34.34H709.35V32.75H712.65V34.34H724.35V36.56H712.65V45.74H724.65V48.05H712.65V50.15H709.35ZM699.9 44.84V37.46H722.1V44.84H702.96V42.95H719.04V41.96H702.96V40.34H719.04V39.35H702.96V44.84H699.9ZM697.44 33.14L697.2 30.86C698.88 30.76 700.63 30.63 702.45 30.47C704.29 30.29 706.09 30.1 707.85 29.9L708 32.06C706.82 32.2 705.62 32.34 704.4 32.48C703.18 32.6 701.98 32.72 700.8 32.84C699.64 32.96 698.52 33.06 697.44 33.14ZM698.25 29.45V27.44H707.34V29.45H698.25ZM706.65 34.76L703.56 33.35C704.38 32.85 705.02 32.36 705.48 31.88C705.94 31.38 706.26 30.82 706.44 30.2C706.64 29.58 706.74 28.83 706.74 27.95V26.36H697.8V24.05H706.74V22.55H709.95V26.75C709.95 27.85 709.9 28.79 709.8 29.57C709.72 30.33 709.56 31 709.32 31.58C709.08 32.16 708.74 32.7 708.3 33.2C707.88 33.68 707.33 34.2 706.65 34.76ZM711.96 33.65V22.55H715.26V24.05H724.2V26.36H715.26V27.44H723.75V29.45H715.26V30.5H724.65V32.66H715.26V33.65H711.96Z" fill="#F58BAB"></path></svg>