<svg xmlns="http://www.w3.org/2000/svg" width="521" height="75" viewBox="0 0 521 75" fill="none"><rect x="4" y="5" width="517" height="70" fill="#F58BAB"></rect><rect x="1" y="1" width="515" height="68" fill="white" stroke="#F58BAB" stroke-width="2"></rect><path d="M83.59 47V28.88H83.53L75.64 33.47L74.65 30.59L83.59 25.1H86.95V47H83.59ZM97.8895 49.4V23.6H119.489V49.4H116.249V47.6H101.129V44.9H116.249V36.65H101.129V33.95H116.249V26.36H101.129V49.4H97.8895ZM142.859 45.05C143.939 44.93 144.929 44.62 145.829 44.12C146.749 43.62 147.539 42.97 148.199 42.17C148.879 41.37 149.399 40.46 149.759 39.44C150.139 38.4 150.329 37.29 150.329 36.11C150.329 34.41 149.939 32.93 149.159 31.67C148.379 30.41 147.289 29.44 145.889 28.76C144.509 28.06 142.899 27.71 141.059 27.71C139.499 27.71 138.049 27.97 136.709 28.49C135.369 29.01 134.189 29.73 133.169 30.65C132.149 31.55 131.349 32.61 130.769 33.83C130.209 35.05 129.929 36.36 129.929 37.76C129.929 38.8 130.089 39.79 130.409 40.73C130.749 41.67 131.179 42.44 131.699 43.04C132.219 43.62 132.769 43.91 133.349 43.91C134.189 43.91 134.979 43.19 135.719 41.75C136.479 40.31 137.159 38.24 137.759 35.54C138.379 32.82 138.889 29.56 139.289 25.76L142.379 26.09C141.959 29.73 141.469 32.87 140.909 35.51C140.369 38.15 139.739 40.33 139.019 42.05C138.299 43.75 137.479 45.02 136.559 45.86C135.659 46.68 134.639 47.09 133.499 47.09C132.579 47.09 131.719 46.85 130.919 46.37C130.139 45.89 129.449 45.23 128.849 44.39C128.269 43.53 127.809 42.54 127.469 41.42C127.149 40.28 126.989 39.06 126.989 37.76C126.989 35.9 127.339 34.18 128.039 32.6C128.739 31.02 129.719 29.66 130.979 28.52C132.239 27.36 133.729 26.46 135.449 25.82C137.169 25.18 139.049 24.86 141.089 24.86C143.489 24.86 145.609 25.32 147.449 26.24C149.309 27.14 150.759 28.43 151.799 30.11C152.859 31.79 153.389 33.79 153.389 36.11C153.389 37.67 153.149 39.13 152.669 40.49C152.209 41.83 151.549 43.02 150.689 44.06C149.829 45.1 148.799 45.95 147.599 46.61C146.419 47.27 145.119 47.68 143.699 47.84L142.859 45.05ZM164.939 27.26V24.56H173.129V22.1H176.429V24.56H184.949V27.26H164.939ZM160.499 49.43L157.949 47.72C158.829 46.4 159.639 44.96 160.379 43.4C161.139 41.84 161.789 40.27 162.329 38.69L165.029 39.77C164.689 40.87 164.279 42 163.799 43.16C163.339 44.3 162.829 45.41 162.269 46.49C161.709 47.55 161.119 48.53 160.499 49.43ZM164.549 49.91L162.539 47.63C163.359 47.17 164.059 46.63 164.639 46.01C165.239 45.37 165.719 44.62 166.079 43.76C166.459 42.88 166.739 41.85 166.919 40.67C167.099 39.49 167.189 38.12 167.189 36.56H170.249C170.249 38.42 170.139 40.06 169.919 41.48C169.699 42.9 169.359 44.14 168.899 45.2C168.439 46.26 167.849 47.17 167.129 47.93C166.409 48.69 165.549 49.35 164.549 49.91ZM162.689 36.32C161.889 35.56 161.029 34.8 160.109 34.04C159.209 33.26 158.249 32.49 157.229 31.73L159.059 29.57C160.079 30.31 161.049 31.06 161.969 31.82C162.889 32.56 163.749 33.31 164.549 34.07L162.689 36.32ZM172.529 49.16V36.56H175.589V49.16H172.529ZM163.499 29.27C162.779 28.59 161.999 27.9 161.159 27.2C160.339 26.5 159.469 25.81 158.549 25.13L160.409 22.97C161.329 23.65 162.199 24.33 163.019 25.01C163.859 25.67 164.639 26.34 165.359 27.02L163.499 29.27ZM181.349 49.46C180.409 49.46 179.709 49.41 179.249 49.31C178.809 49.21 178.529 49 178.409 48.68C178.289 48.38 178.229 47.9 178.229 47.24V36.26H181.289V45.95C181.289 46.25 181.299 46.47 181.319 46.61C181.339 46.73 181.399 46.8 181.499 46.82C181.619 46.84 181.799 46.85 182.039 46.85C182.259 46.85 182.419 46.82 182.519 46.76C182.639 46.68 182.729 46.49 182.789 46.19C182.849 45.87 182.899 45.34 182.939 44.6C182.979 43.84 183.029 42.79 183.089 41.45L185.789 41.75C185.749 43.27 185.699 44.52 185.639 45.5C185.579 46.46 185.469 47.21 185.309 47.75C185.149 48.31 184.909 48.71 184.589 48.95C184.289 49.19 183.879 49.33 183.359 49.37C182.839 49.43 182.169 49.46 181.349 49.46ZM164.879 35.75L164.789 33.05C167.429 32.97 170.189 32.82 173.069 32.6C175.949 32.38 178.859 32.11 181.799 31.79L181.919 34.4C178.939 34.78 176.009 35.08 173.129 35.3C170.269 35.52 167.519 35.67 164.879 35.75ZM170.759 34.19L167.729 33.41C168.309 32.25 168.879 31.03 169.439 29.75C169.999 28.47 170.499 27.2 170.939 25.94L174.089 26.51C173.629 27.79 173.099 29.1 172.499 30.44C171.919 31.76 171.339 33.01 170.759 34.19ZM182.819 36.62C181.999 35.32 181.119 34.04 180.179 32.78C179.259 31.52 178.329 30.3 177.389 29.12L180.029 27.77C180.969 28.89 181.889 30.09 182.789 31.37C183.709 32.63 184.569 33.88 185.369 35.12L182.819 36.62ZM212.849 47.6C211.649 47.6 210.759 47.28 210.179 46.64C209.619 45.98 209.339 44.95 209.339 43.55V32.36C209.339 31.12 209.179 30.21 208.859 29.63C208.559 29.03 208.079 28.73 207.419 28.73C206.999 28.73 206.519 28.86 205.979 29.12C205.439 29.38 204.769 29.81 203.969 30.41C203.189 30.99 202.249 31.78 201.149 32.78C200.049 33.76 198.739 34.98 197.219 36.44H196.919C196.059 37.3 195.089 38.28 194.009 39.38C192.949 40.46 191.779 41.66 190.499 42.98L188.729 40.43C191.249 37.97 193.419 35.89 195.239 34.19C197.059 32.47 198.609 31.07 199.889 29.99C201.189 28.89 202.289 28.04 203.189 27.44C204.109 26.84 204.919 26.43 205.619 26.21C206.339 25.97 207.039 25.85 207.719 25.85C209.279 25.85 210.459 26.34 211.259 27.32C212.079 28.28 212.489 29.69 212.489 31.55V42.08C212.489 42.78 212.509 43.32 212.549 43.7C212.609 44.08 212.699 44.34 212.819 44.48C212.939 44.62 213.119 44.69 213.359 44.69C213.739 44.69 214.249 44.57 214.889 44.33C215.549 44.07 216.249 43.72 216.989 43.28L218.039 45.92C217.139 46.48 216.249 46.9 215.369 47.18C214.509 47.46 213.669 47.6 212.849 47.6ZM195.779 48.95V30.65H188.939V27.95H195.779V23.45H198.839V48.95H195.779ZM243.149 50.15C241.649 48.21 240.509 46.06 239.729 43.7C238.949 41.34 238.559 38.84 238.559 36.2C238.559 33.54 238.949 31.03 239.729 28.67C240.509 26.31 241.649 24.17 243.149 22.25H246.389C244.889 24.33 243.779 26.51 243.059 28.79C242.359 31.05 242.009 33.52 242.009 36.2C242.009 38.86 242.359 41.33 243.059 43.61C243.779 45.87 244.889 48.05 246.389 50.15H243.149ZM255.389 49.4V23.6H276.989V49.4H273.749V47.6H258.629V44.9H273.749V36.65H258.629V33.95H273.749V26.36H258.629V49.4H255.389ZM290.189 47.9V44.45H284.939V42.05H290.189V40.55H284.429V38.06H290.189V36.74H287.849V34.46H290.189V31.85H287.849V36.74H284.849V29.66H298.589V36.74H295.739V31.85H293.429V34.46H295.739V36.74H293.429V38.06H298.649V40.55H293.429V42.05H297.989V44.45H293.429V47.9H290.189ZM307.529 49.04C307.129 49.04 306.549 49 305.789 48.92C305.029 48.86 304.249 48.79 303.449 48.71L303.419 45.8C304.179 45.9 304.819 45.98 305.339 46.04C305.879 46.08 306.309 46.1 306.629 46.1C306.809 46.1 306.969 46.02 307.109 45.86C307.269 45.7 307.409 45.38 307.529 44.9C307.649 44.4 307.739 43.66 307.799 42.68C307.879 41.68 307.939 40.36 307.979 38.72C308.019 37.08 308.039 35.02 308.039 32.54V31.34H298.529V28.64H311.189V30.56C311.189 33.46 311.169 35.94 311.129 38C311.089 40.04 311.019 41.74 310.919 43.1C310.819 44.46 310.679 45.54 310.499 46.34C310.319 47.14 310.099 47.73 309.839 48.11C309.579 48.49 309.259 48.74 308.879 48.86C308.499 48.98 308.049 49.04 307.529 49.04ZM284.039 49.31L283.889 46.7C285.009 46.66 286.169 46.6 287.369 46.52C288.589 46.44 289.809 46.35 291.029 46.25C292.269 46.13 293.489 46.01 294.689 45.89C295.889 45.77 297.039 45.64 298.139 45.5L298.319 47.96C296.819 48.18 295.259 48.38 293.639 48.56C292.019 48.74 290.389 48.89 288.749 49.01C287.129 49.13 285.559 49.23 284.039 49.31ZM299.999 49.55L297.419 47.96C298.019 47.08 298.549 46.13 299.009 45.11C299.489 44.07 299.899 42.89 300.239 41.57C300.579 40.23 300.859 38.68 301.079 36.92C301.299 35.16 301.459 33.11 301.559 30.77C301.679 28.43 301.739 25.72 301.739 22.64H304.739C304.739 25.8 304.679 28.61 304.559 31.07C304.459 33.51 304.289 35.67 304.049 37.55C303.809 39.41 303.499 41.06 303.119 42.5C302.739 43.92 302.289 45.2 301.769 46.34C301.269 47.48 300.679 48.55 299.999 49.55ZM286.649 29.96V27.56H283.889V24.95H286.649V22.46H289.739V24.95H293.429V22.46H296.489V24.95H299.549V27.56H296.489V29.96H293.429V27.56H289.739V29.96H286.649ZM331.859 45.05C332.939 44.93 333.929 44.62 334.829 44.12C335.749 43.62 336.539 42.97 337.199 42.17C337.879 41.37 338.399 40.46 338.759 39.44C339.139 38.4 339.329 37.29 339.329 36.11C339.329 34.41 338.939 32.93 338.159 31.67C337.379 30.41 336.289 29.44 334.889 28.76C333.509 28.06 331.899 27.71 330.059 27.71C328.499 27.71 327.049 27.97 325.709 28.49C324.369 29.01 323.189 29.73 322.169 30.65C321.149 31.55 320.349 32.61 319.769 33.83C319.209 35.05 318.929 36.36 318.929 37.76C318.929 38.8 319.089 39.79 319.409 40.73C319.749 41.67 320.179 42.44 320.699 43.04C321.219 43.62 321.769 43.91 322.349 43.91C323.189 43.91 323.979 43.19 324.719 41.75C325.479 40.31 326.159 38.24 326.759 35.54C327.379 32.82 327.889 29.56 328.289 25.76L331.379 26.09C330.959 29.73 330.469 32.87 329.909 35.51C329.369 38.15 328.739 40.33 328.019 42.05C327.299 43.75 326.479 45.02 325.559 45.86C324.659 46.68 323.639 47.09 322.499 47.09C321.579 47.09 320.719 46.85 319.919 46.37C319.139 45.89 318.449 45.23 317.849 44.39C317.269 43.53 316.809 42.54 316.469 41.42C316.149 40.28 315.989 39.06 315.989 37.76C315.989 35.9 316.339 34.18 317.039 32.6C317.739 31.02 318.719 29.66 319.979 28.52C321.239 27.36 322.729 26.46 324.449 25.82C326.169 25.18 328.049 24.86 330.089 24.86C332.489 24.86 334.609 25.32 336.449 26.24C338.309 27.14 339.759 28.43 340.799 30.11C341.859 31.79 342.389 33.79 342.389 36.11C342.389 37.67 342.149 39.13 341.669 40.49C341.209 41.83 340.549 43.02 339.689 44.06C338.829 45.1 337.799 45.95 336.599 46.61C335.419 47.27 334.119 47.68 332.699 47.84L331.859 45.05ZM349.649 44.06V32.9H346.829V30.35H349.649V23.24H352.829V30.35H355.829V32.9H352.829V44.06H349.649ZM347.099 46.58L346.679 43.85C347.679 43.63 348.709 43.39 349.769 43.13C350.829 42.87 351.889 42.58 352.949 42.26C354.009 41.92 355.039 41.56 356.039 41.18L356.339 43.46C355.299 43.9 354.259 44.32 353.219 44.72C352.179 45.1 351.149 45.45 350.129 45.77C349.109 46.07 348.099 46.34 347.099 46.58ZM355.229 48.35L353.549 46.34C354.449 45.92 355.349 45.4 356.249 44.78C357.169 44.16 358.049 43.5 358.889 42.8C359.749 42.08 360.519 41.35 361.199 40.61C361.899 39.85 362.479 39.13 362.939 38.45L365.399 39.47C364.719 40.53 363.829 41.62 362.729 42.74C361.629 43.86 360.429 44.91 359.129 45.89C357.829 46.87 356.529 47.69 355.229 48.35ZM355.829 42.5L354.329 40.37C355.109 40.01 355.899 39.55 356.699 38.99C357.519 38.41 358.299 37.79 359.039 37.13C359.779 36.45 360.429 35.78 360.989 35.12L363.299 36.29C362.679 37.09 361.949 37.89 361.109 38.69C360.269 39.47 359.389 40.19 358.469 40.85C357.569 41.51 356.689 42.06 355.829 42.5ZM361.529 50L359.639 48.05C360.479 47.51 361.319 46.87 362.159 46.13C363.019 45.39 363.829 44.59 364.589 43.73C365.349 42.87 366.019 42.01 366.599 41.15C367.199 40.29 367.659 39.47 367.979 38.69L370.439 39.5C370.079 40.4 369.579 41.34 368.939 42.32C368.319 43.28 367.609 44.24 366.809 45.2C366.009 46.14 365.159 47.02 364.259 47.84C363.359 48.68 362.449 49.4 361.529 50ZM370.049 49.46C369.569 49.46 369.009 49.44 368.369 49.4C367.729 49.38 367.039 49.35 366.299 49.31L366.149 46.7C366.689 46.74 367.219 46.78 367.739 46.82C368.279 46.84 368.709 46.85 369.029 46.85C369.369 46.85 369.649 46.71 369.869 46.43C370.089 46.13 370.249 45.55 370.349 44.69C370.469 43.83 370.529 42.52 370.529 40.76V40.64H358.649V38.24H373.649V40.25C373.649 42.19 373.579 43.77 373.439 44.99C373.299 46.21 373.079 47.14 372.779 47.78C372.479 48.42 372.099 48.86 371.639 49.1C371.199 49.34 370.669 49.46 370.049 49.46ZM355.349 37.04V34.55H374.429V37.04H355.349ZM357.029 33.5V23.36H372.929V33.5H360.089V31.34H369.689V29.66H360.089V27.44H369.689V25.85H360.089V33.5H357.029ZM379.829 33.86L378.479 31.19C380.039 30.33 381.479 29.47 382.799 28.61C384.119 27.75 385.379 26.83 386.579 25.85C387.799 24.87 389.009 23.8 390.209 22.64H394.169C395.369 23.8 396.569 24.87 397.769 25.85C398.989 26.83 400.259 27.75 401.579 28.61C402.899 29.47 404.339 30.33 405.899 31.19L404.549 33.86C402.169 32.58 399.969 31.2 397.949 29.72C395.949 28.24 394.029 26.58 392.189 24.74C390.349 26.58 388.419 28.24 386.399 29.72C384.399 31.2 382.209 32.58 379.829 33.86ZM381.689 49.64V36.8H402.689V49.64H399.449V48.14H384.929V45.56H399.449V39.44H384.929V49.64H381.689ZM383.789 33.65V31.04H400.589V33.65H383.789ZM415.229 50.15H411.989C413.489 48.05 414.589 45.87 415.289 43.61C416.009 41.33 416.369 38.86 416.369 36.2C416.369 33.52 416.009 31.05 415.289 28.79C414.589 26.51 413.489 24.33 411.989 22.25H415.229C416.729 24.17 417.869 26.31 418.649 28.67C419.429 31.03 419.819 33.54 419.819 36.2C419.819 38.84 419.429 41.34 418.649 43.7C417.869 46.06 416.729 48.21 415.229 50.15Z" fill="#F58BAB"></path></svg>